<svg width="21" height="15" viewBox="0 0 21 15" fill="none" xmlns="http://www.w3.org/2000/svg">
<g id="Group">
<path id="Vector" fill-rule="evenodd" clip-rule="evenodd" d="M10.4672 4.96289C9.06719 4.96289 7.92969 6.10039 7.92969 7.50039C7.92969 8.90039 9.06719 10.0379 10.4672 10.0379C11.8672 10.0379 13.0047 8.90039 13.0047 7.50039C13.0047 6.10039 11.8672 4.96289 10.4672 4.96289Z" fill="#8B95A1"/>
<path id="Vector_2" fill-rule="evenodd" clip-rule="evenodd" d="M10.4673 11.8752C8.01729 11.8752 6.09229 9.86269 6.09229 7.5002C6.09229 5.1377 8.10478 3.1252 10.4673 3.1252C12.8298 3.1252 14.8423 5.1377 14.8423 7.5002C14.8423 9.86269 12.9173 11.8752 10.4673 11.8752ZM20.0923 6.36269C17.8173 2.86269 14.2298 0.762695 10.4673 0.762695C6.70478 0.762695 3.11729 2.86269 0.842285 6.36269C0.404785 7.0627 0.404785 7.9377 0.842285 8.6377C3.11729 12.1377 6.70478 14.2377 10.4673 14.2377C14.2298 14.2377 17.8173 12.1377 20.0923 8.6377C20.6173 7.9377 20.6173 7.0627 20.0923 6.36269Z" fill="#8B95A1"/>
</g>
</svg>
