<svg width="17" height="18" viewBox="0 0 17 18" fill="none" xmlns="http://www.w3.org/2000/svg">
<path id="Icon" d="M1 16.5L5.30655 14.8436C5.58201 14.7377 5.71974 14.6847 5.84859 14.6155C5.96305 14.5541 6.07216 14.4832 6.17479 14.4036C6.29033 14.3139 6.39467 14.2096 6.60336 14.0009L15.3571 5.24715C16.2143 4.38993 16.2143 3.00012 15.3571 2.14291C14.4999 1.2857 13.1101 1.2857 12.2529 2.14291L3.49913 10.8966C3.29044 11.1053 3.1861 11.2097 3.09644 11.3252C3.0168 11.4278 2.94589 11.5369 2.88445 11.6514C2.81528 11.7803 2.76231 11.918 2.65637 12.1934L1 16.5ZM1 16.5L2.59722 12.3473C2.71152 12.0501 2.76866 11.9015 2.86668 11.8335C2.95234 11.774 3.05834 11.7515 3.16078 11.7711C3.27799 11.7934 3.39056 11.906 3.61569 12.1311L5.36888 13.8843C5.59401 14.1095 5.70658 14.222 5.72896 14.3392C5.74852 14.4417 5.72603 14.5477 5.66655 14.6333C5.59849 14.7314 5.44991 14.7885 5.15274 14.9028L1 16.5Z" stroke="white" stroke-width="2" stroke-linecap="round" stroke-linejoin="round"/>
</svg>
