<svg width="189" height="220" viewBox="0 0 189 220" fill="none" xmlns="http://www.w3.org/2000/svg">
<g id="Group 36978" filter="url(#filter0_d_2533_11567)">
<g id="Group">
<g id="Group_2">
<path id="Vector" d="M86.7419 205H82.4779C78.3623 205 74.9883 201.632 74.9883 197.523V177.274C74.9883 174.09 77.6022 171.48 80.7909 171.48H88.4474C91.6361 171.48 94.2501 174.09 94.2501 177.274V197.523C94.2315 201.632 90.8575 205 86.7419 205Z" fill="white" stroke="#5B5B5B" stroke-width="1.5" stroke-miterlimit="10" stroke-linecap="round"/>
<path id="Vector_2" d="M82.125 201.391V204.648" stroke="#5B5B5B" stroke-width="1.5" stroke-miterlimit="10" stroke-linecap="round"/>
<path id="Vector_3" d="M87.873 201.391V204.648" stroke="#5B5B5B" stroke-width="1.5" stroke-miterlimit="10" stroke-linecap="round"/>
</g>
<g id="Group_3">
<path id="Vector_4" d="M110.254 205H105.99C101.874 205 98.5 201.632 98.5 197.523V177.274C98.5 174.09 101.114 171.48 104.303 171.48H111.959C115.148 171.48 117.762 174.09 117.762 177.274V197.523C117.743 201.632 114.369 205 110.254 205Z" fill="white" stroke="#5B5B5B" stroke-width="1.5" stroke-miterlimit="10" stroke-linecap="round"/>
<path id="Vector_5" d="M105.637 201.391V204.648" stroke="#5B5B5B" stroke-width="1.5" stroke-miterlimit="10" stroke-linecap="round"/>
<path id="Vector_6" d="M111.385 201.391V204.648" stroke="#5B5B5B" stroke-width="1.5" stroke-miterlimit="10" stroke-linecap="round"/>
</g>
<path id="Vector_7" d="M172.484 56.9096C171.687 48.7842 165.291 42.2505 156.522 39.4186C156.559 38.5487 156.54 37.6788 156.466 36.8089C155.298 24.9816 142.284 16.5415 127.379 17.9297C124.005 18.2444 120.835 19.0402 117.943 20.2248C112.733 13.9133 103.334 10.1744 93.0452 11.1554C84.7583 11.9328 77.6394 15.5976 73.153 20.7246C68.5183 18.6886 63.0494 17.7446 57.2653 18.2999C43.6393 19.577 33.1649 28.6649 32.3863 39.2521C21.263 42.8243 13.7362 51.8937 14.7003 61.722C15.1267 66.1086 17.203 70.014 20.3731 73.142C15.5901 77.5286 12.902 83.3405 13.5138 89.4484C14.2368 96.6854 19.3906 102.664 26.7134 105.884C24.5258 109.383 23.4506 113.344 23.8584 117.434C25.0264 129.261 38.0406 137.701 52.9458 136.313C53.2053 136.295 53.4463 136.258 53.7059 136.239C57.5063 145.346 68.8335 151.305 81.5326 150.121C86.6307 149.64 91.284 148.066 95.1586 145.734C100.516 149.603 107.913 151.639 115.848 150.898C127.842 149.769 137.39 142.606 140.041 133.685C154.334 131.834 164.846 121.376 163.696 109.882C163.604 109.012 163.455 108.142 163.252 107.31C171.297 102.886 176.284 95.2973 175.487 87.1718C174.912 81.2674 171.371 76.2145 166.125 72.7903C170.593 68.4407 173.059 62.814 172.484 56.9096ZM76.5271 107.365C74.4508 102.405 70.1498 98.3697 64.5881 95.9266C66.7757 92.4469 67.8509 88.4859 67.4431 84.377C67.0167 79.9903 64.9404 76.0849 61.7702 72.9569C65.7746 69.2921 68.2959 64.6279 68.6667 59.649C73.8575 57.9831 78.2697 55.1143 81.3843 51.542C86.019 53.578 91.4879 54.522 97.272 53.9667C100.646 53.652 103.816 52.8562 106.708 51.6716C109.563 55.1328 113.66 57.8166 118.499 59.3713C118.462 60.2412 118.48 61.1112 118.555 61.9811C119.129 67.8854 122.67 72.9384 127.917 76.3626C123.43 80.6937 120.946 86.3204 121.539 92.2248C121.632 93.0947 121.78 93.9646 121.984 94.7975C116.219 97.9626 112.029 102.756 110.397 108.217C105.763 108.809 101.536 110.308 97.9765 112.455C92.6188 108.587 85.2218 106.551 77.2872 107.291C77.0276 107.31 76.7866 107.347 76.5271 107.365Z" fill="#FACD5B" stroke="#5B5B5B" stroke-width="1.5" stroke-miterlimit="10"/>
<g id="Group_4">
<path id="Vector_8" d="M121.428 156C121.428 163.348 133.775 169.289 149.051 169.289" stroke="#5B5B5B" stroke-width="1.5" stroke-miterlimit="10"/>
</g>
<path id="Vector_9" d="M156.151 170.677C153 171.732 149.051 168.623 149.051 168.623C149.051 168.623 150.219 163.811 153.37 162.756C156.522 161.701 159.692 162.626 160.471 164.81C161.231 167.013 159.303 169.622 156.151 170.677Z" fill="#FACD5B" stroke="#5B5B5B" stroke-width="1.5" stroke-miterlimit="10"/>
<path id="Vector_10" d="M133.127 124.116C141.339 115.75 146.345 104.7 146.345 92.5767C146.345 83.822 143.731 75.6225 139.189 68.5891C141.877 65.7942 143.471 62.0924 143.36 58.0575C143.138 49.821 135.759 43.1392 126.749 43.0282C121.429 42.9542 116.683 45.1382 113.531 48.5809C107.673 46.4709 101.277 45.3233 94.6031 45.3233C87.9291 45.3233 81.5332 46.4894 75.675 48.5809C72.5234 45.1382 67.7774 42.9542 62.4568 43.0282C53.447 43.1578 46.0685 49.821 45.8461 58.0575C45.7348 62.0924 47.3292 65.7942 50.0173 68.5891C45.4753 75.6225 42.8613 83.822 42.8613 92.5767C42.8613 105.496 48.5342 117.194 57.7109 125.726C59.2867 126.67 60.1395 127.707 59.8614 129.484C59.676 130.65 59.5833 132.556 59.5833 133.778V155.84C59.5833 173.498 75.3969 184.067 94.7328 184.067H98.4221C117.758 184.067 134.313 173.517 134.313 155.84L133.572 133.778C133.293 131.446 132.811 129.576 132.07 127.281C131.81 126.393 132.441 124.745 133.127 124.116Z" fill="white" stroke="#5B5B5B" stroke-width="1.5" stroke-miterlimit="10"/>
<path id="Vector_11" d="M132.273 52.8563C129.195 49.8578 124.208 49.8578 121.131 52.8563L132.273 63.721C135.35 60.7226 135.35 55.8547 132.273 52.8563Z" fill="#FACD5B" stroke="#5B5B5B" stroke-width="1.5" stroke-miterlimit="10"/>
<path id="Vector_12" d="M56.9878 52.8563C53.9103 55.8547 53.9103 60.7226 56.9878 63.721L68.1296 52.8563C65.0521 49.8578 60.0652 49.8578 56.9878 52.8563Z" fill="#FACD5B" stroke="#5B5B5B" stroke-width="1.5" stroke-miterlimit="10"/>
<path id="Vector_13" d="M108.708 88.916C109.486 89.1799 110.096 89.5797 110.461 89.976C110.849 90.3964 110.846 90.6633 110.815 90.7548C110.783 90.8463 110.623 91.06 110.059 91.1572C109.527 91.2489 108.8 91.1947 108.022 90.9308C107.245 90.6669 106.635 90.2672 106.269 89.8709C105.881 89.4504 105.885 89.1835 105.916 89.0921C105.947 89.0006 106.107 88.7868 106.672 88.6896C107.204 88.598 107.931 88.6521 108.708 88.916Z" fill="black" stroke="#5B5B5B" stroke-width="1.5"/>
<path id="Vector_14" d="M82.892 88.8704C82.933 88.9604 82.9623 89.2257 82.6218 89.6796C82.3004 90.1082 81.738 90.564 80.996 90.9012C80.2539 91.2384 79.5403 91.3625 79.0055 91.323C78.439 91.2812 78.2578 91.085 78.2168 90.995C78.1757 90.905 78.1465 90.6397 78.487 90.1857C78.8084 89.7572 79.3708 89.3014 80.1128 88.9641C80.8549 88.6269 81.5685 88.5029 82.1033 88.5423C82.6698 88.5841 82.851 88.7803 82.892 88.8704Z" fill="black" stroke="#5B5B5B" stroke-width="1.5"/>
<g id="Group_5">
<path id="Vector_15" d="M88.4283 101.424C91.8071 101.424 94.5461 99.2773 94.5461 96.6298C94.5461 93.9822 91.8071 91.8359 88.4283 91.8359C85.0496 91.8359 82.3105 93.9822 82.3105 96.6298C82.3105 99.2773 85.0496 101.424 88.4283 101.424Z" fill="white" stroke="#5B5B5B" stroke-width="1.5" stroke-miterlimit="10"/>
<path id="Vector_16" d="M100.59 101.516C103.969 101.516 106.708 99.3701 106.708 96.7225C106.708 94.075 103.969 91.9287 100.59 91.9287C97.2117 91.9287 94.4727 94.075 94.4727 96.7225C94.4727 99.3701 97.2117 101.516 100.59 101.516Z" fill="white" stroke="#5B5B5B" stroke-width="1.5" stroke-miterlimit="10"/>
</g>
<path id="Vector_17" d="M98.0696 93.1688C98.0696 94.7236 94.2692 95.9822 94.2692 95.9822C94.2692 95.9822 90.4688 94.7236 90.4688 93.1688C90.4688 91.6141 92.1743 90.3555 94.2692 90.3555C96.3826 90.3555 98.0696 91.6141 98.0696 93.1688Z" fill="#FACD5B" stroke="#5B5B5B" stroke-width="1.5" stroke-miterlimit="10"/>
<g id="Group_6">
<g id="Group_7">
<path id="Vector_18" d="M84.6044 128.105C89.6726 128.105 93.7811 125.395 93.7811 122.052C93.7811 118.71 89.6726 116 84.6044 116C79.5363 116 75.4277 118.71 75.4277 122.052C75.4277 125.395 79.5363 128.105 84.6044 128.105Z" fill="white" stroke="#5B5B5B" stroke-width="1.5" stroke-miterlimit="10"/>
<path id="Vector_19" d="M81.1758 124.495V127.438" stroke="#5B5B5B" stroke-width="1.5" stroke-miterlimit="10" stroke-linecap="round"/>
</g>
<path id="Vector_20" d="M87.1074 124.495V127.753" stroke="#5B5B5B" stroke-width="1.5" stroke-miterlimit="10" stroke-linecap="round"/>
</g>
<g id="Group_8">
<g id="Group_9">
<path id="Vector_21" d="M104.366 128.105C109.434 128.105 113.543 125.395 113.543 122.052C113.543 118.71 109.434 116 104.366 116C99.298 116 95.1895 118.71 95.1895 122.052C95.1895 125.395 99.298 128.105 104.366 128.105Z" fill="white" stroke="#5B5B5B" stroke-width="1.5" stroke-miterlimit="10"/>
<path id="Vector_22" d="M100.938 124.496V127.439" stroke="#5B5B5B" stroke-width="1.5" stroke-miterlimit="10" stroke-linecap="round"/>
</g>
<path id="Vector_23" d="M106.869 124.496V127.754" stroke="#5B5B5B" stroke-width="1.5" stroke-miterlimit="10" stroke-linecap="round"/>
</g>
</g>
<path id="Ellipse 39" d="M112.928 94.1954C113.707 94.1954 114.449 94.0425 115.025 93.761C115.551 93.5038 116.178 93.0062 116.178 92.2227C116.178 91.4392 115.551 90.9415 115.025 90.6844C114.449 90.4029 113.707 90.25 112.928 90.25C112.148 90.25 111.406 90.4029 110.83 90.6844C110.305 90.9415 109.678 91.4392 109.678 92.2227C109.678 93.0062 110.305 93.5038 110.83 93.761C111.406 94.0425 112.148 94.1954 112.928 94.1954Z" fill="#8EC2FF" stroke="#5B5B5B" stroke-width="1.5"/>
<path id="Ellipse 40" d="M76.9277 94.1954C77.707 94.1954 78.4495 94.0425 79.025 93.761C79.5508 93.5038 80.1777 93.0062 80.1777 92.2227C80.1777 91.4392 79.5508 90.9415 79.025 90.6844C78.4495 90.4029 77.707 90.25 76.9277 90.25C76.1485 90.25 75.406 90.4029 74.8305 90.6844C74.3046 90.9415 73.6777 91.4392 73.6777 92.2227C73.6777 93.0062 74.3046 93.5038 74.8305 93.761C75.406 94.0425 76.1485 94.1954 76.9277 94.1954Z" fill="#8EC2FF" stroke="#5B5B5B" stroke-width="1.5"/>
</g>
<defs>
<filter id="filter0_d_2533_11567" x="0.677734" y="0.25" width="187.643" height="219.5" filterUnits="userSpaceOnUse" color-interpolation-filters="sRGB">
<feFlood flood-opacity="0" result="BackgroundImageFix"/>
<feColorMatrix in="SourceAlpha" type="matrix" values="0 0 0 0 0 0 0 0 0 0 0 0 0 0 0 0 0 0 127 0" result="hardAlpha"/>
<feOffset dy="2"/>
<feGaussianBlur stdDeviation="6"/>
<feComposite in2="hardAlpha" operator="out"/>
<feColorMatrix type="matrix" values="0 0 0 0 0 0 0 0 0 0 0 0 0 0 0 0 0 0 0.13 0"/>
<feBlend mode="normal" in2="BackgroundImageFix" result="effect1_dropShadow_2533_11567"/>
<feBlend mode="normal" in="SourceGraphic" in2="effect1_dropShadow_2533_11567" result="shape"/>
</filter>
</defs>
</svg>
