<svg width="21" height="22" viewBox="0 0 21 22" fill="none" xmlns="http://www.w3.org/2000/svg">
<path id="Icon" d="M1.5 6.57026C1.5 4.89011 1.5 4.05003 1.82698 3.40829C2.1146 2.84381 2.57354 2.38486 3.13803 2.09724C3.77976 1.77026 4.61984 1.77026 6.3 1.77026H14.7C16.3802 1.77026 17.2202 1.77026 17.862 2.09724C18.4265 2.38486 18.8854 2.84381 19.173 3.40829C19.5 4.05003 19.5 4.89011 19.5 6.57026V11.9703C19.5 13.6504 19.5 14.4905 19.173 15.1322C18.8854 15.6967 18.4265 16.1557 17.862 16.4433C17.2202 16.7703 16.3802 16.7703 14.7 16.7703H12.1837C11.5597 16.7703 11.2477 16.7703 10.9492 16.8315C10.6844 16.8859 10.4282 16.9757 10.1875 17.0987C9.91617 17.2373 9.67252 17.4323 9.18521 17.8221L6.79976 19.7305C6.38367 20.0633 6.17563 20.2298 6.00054 20.23C5.84827 20.2301 5.70422 20.1609 5.60923 20.0419C5.5 19.905 5.5 19.6386 5.5 19.1058V16.7703C4.57003 16.7703 4.10504 16.7703 3.72354 16.668C2.68827 16.3906 1.87962 15.582 1.60222 14.5467C1.5 14.1652 1.5 13.7002 1.5 12.7703V6.57026Z" stroke="#9B9B9B" stroke-width="2" stroke-linecap="round" stroke-linejoin="round"/>
</svg>
