<svg width="130" height="113" viewBox="0 0 130 113" fill="none" xmlns="http://www.w3.org/2000/svg">
<g id="undraw_opened_re_i38e 1" clip-path="url(#clip0_647_4498)">
<path id="Vector" d="M128.472 111.384C128.247 111.698 128.019 112.01 127.794 112.319C127.146 112.764 126.378 113.002 125.591 113H4.40908C3.65752 113.001 2.9219 112.784 2.29128 112.377C2.08199 112.102 1.87506 111.824 1.66577 111.547L1.87506 111.432L63.2225 77.5368C63.7668 77.2367 64.3785 77.0789 65.0006 77.0781C65.6226 77.0773 66.2347 77.2336 66.7798 77.5323L128.265 111.27L128.472 111.384Z" fill="#71A1FE"/>
<path id="Vector_2" d="M125.591 40.1113L72.4231 9.50498C70.1868 8.21768 67.6502 7.53936 65.0679 7.53809C62.4855 7.53682 59.9483 8.21265 57.7107 9.49776L4.40909 40.1113C3.37279 40.1128 2.37935 40.5238 1.64657 41.2542C0.913789 41.9847 0.501466 42.9749 0.5 44.0079V109.103C0.501207 110.136 0.913445 111.127 1.64628 111.857C2.37912 112.588 3.37271 112.999 4.40909 113H125.591C126.627 112.998 127.62 112.587 128.353 111.857C129.086 111.126 129.498 110.136 129.5 109.103V44.0079C129.499 42.9749 129.086 41.9847 128.353 41.2542C127.621 40.5238 126.627 40.1128 125.591 40.1113ZM129.04 109.103C129.038 110.014 128.674 110.888 128.027 111.532C127.381 112.176 126.505 112.539 125.591 112.541H4.40909C3.49481 112.54 2.61845 112.177 1.97196 111.533C1.32546 110.888 0.961538 110.015 0.959893 109.103V44.0079C0.961005 43.0964 1.32476 42.2225 1.97137 41.578C2.61798 40.9335 3.49465 40.5709 4.40909 40.5698L57.7107 9.95618C59.9483 8.67107 62.4855 7.99524 65.0679 7.99651C67.6502 7.99777 70.1868 8.6761 72.4231 9.9634L125.591 40.5698C126.505 40.5709 127.382 40.9335 128.029 41.578C128.675 42.2225 129.039 43.0964 129.04 44.0079V109.103Z" fill="#3F3D56"/>
<path id="Vector_3" d="M65.0689 76.941C64.6684 76.9424 64.2706 76.8759 63.8925 76.7443L63.8229 76.7198L63.8088 76.5657C63.7655 76.5869 63.7218 76.6073 63.678 76.6266L63.6317 76.6468L63.5854 76.6264C63.4885 76.584 63.3923 76.536 63.2994 76.4839L20.9652 52.7715V4.35511C20.9665 3.23088 21.4151 2.15306 22.2126 1.35811C23.0101 0.563165 24.0914 0.116008 25.2192 0.114746H104.781C105.909 0.116008 106.99 0.563165 107.787 1.35811C108.585 2.15306 109.033 3.23088 109.035 4.35511V52.8334L108.976 52.8663L66.8384 76.484C66.2975 76.7846 65.6882 76.9419 65.0689 76.941Z" fill="white"/>
<path id="Vector_4" d="M65.0689 77.0555C64.6554 77.0569 64.2447 76.9882 63.8543 76.8523L63.7151 76.8033L63.7091 76.7379L63.6317 76.7718L63.5392 76.7313C63.4388 76.6873 63.3392 76.6376 63.243 76.5835L20.8502 52.8385V4.35497C20.8515 3.20036 21.3123 2.09342 22.1313 1.27699C22.9504 0.460554 24.0609 0.00130674 25.2192 0H104.781C105.939 0.00131158 107.05 0.460558 107.869 1.27699C108.688 2.09342 109.148 3.20036 109.15 4.35497V52.9003L66.8947 76.5836C66.3366 76.894 65.708 77.0564 65.0689 77.0555ZM64.146 76.4649C64.9914 76.7069 65.8985 76.6059 66.6695 76.184L108.69 52.6321V4.35497C108.689 3.3219 108.276 2.33147 107.544 1.60098C106.811 0.870482 105.817 0.459581 104.781 0.458418H25.2192C24.1828 0.459576 23.1892 0.870478 22.4563 1.60097C21.7235 2.33147 21.3113 3.3219 21.3101 4.35497V52.5701L24.0671 54.1135L63.4685 76.1841C63.5221 76.2142 63.5766 76.2425 63.6318 76.2691C63.687 76.2425 63.7414 76.2142 63.7949 76.1842L64.1045 76.0103L64.146 76.4649Z" fill="#3F3D56"/>
<path id="Vector_5" d="M128.481 41.8031L111.794 51.1548L108.92 52.7662L66.782 76.3839C66.2584 76.675 65.6685 76.8273 65.0689 76.8262C64.6815 76.8274 64.2966 76.763 63.9307 76.636C63.8289 76.6036 63.7291 76.5653 63.6317 76.5214C63.5375 76.4801 63.4456 76.4343 63.3559 76.3839L23.9545 54.3133L21.0802 52.7043L1.55313 41.7664C1.50004 41.7361 1.46109 41.6861 1.44473 41.6273C1.42838 41.5685 1.43594 41.5057 1.46578 41.4524C1.4957 41.3996 1.54543 41.3607 1.60406 41.3444C1.66268 41.3281 1.72541 41.3356 1.77847 41.3653L21.0802 52.1771L23.9545 53.7861L63.5812 75.9827C63.7127 76.0563 63.8495 76.1199 63.9905 76.173C64.0503 76.1959 64.1124 76.2165 64.1745 76.2349C64.5681 76.3553 64.9821 76.395 65.3915 76.3517C65.8009 76.3084 66.1973 76.1828 66.5567 75.9827L108.92 52.2413L111.794 50.6299L128.256 41.4043C128.282 41.3895 128.311 41.3801 128.341 41.3765C128.371 41.3729 128.401 41.3752 128.43 41.3833C128.459 41.3914 128.487 41.4051 128.51 41.4236C128.534 41.4422 128.554 41.4652 128.569 41.4914C128.583 41.5176 128.593 41.5464 128.597 41.5762C128.6 41.6061 128.598 41.6363 128.59 41.6653C128.582 41.6942 128.568 41.7213 128.549 41.7449C128.531 41.7686 128.508 41.7884 128.481 41.8031Z" fill="#3F3D56"/>
<path id="Vector_6" d="M38.2284 15.1278H31.7899C31.302 15.1278 30.8341 14.9346 30.4891 14.5907C30.1441 14.2468 29.9503 13.7804 29.9503 13.2941C29.9503 12.8078 30.1441 12.3414 30.4891 11.9975C30.8341 11.6536 31.302 11.4604 31.7899 11.4604H38.2284C38.7163 11.4604 39.1842 11.6536 39.5292 11.9975C39.8742 12.3414 40.068 12.8078 40.068 13.2941C40.068 13.7804 39.8742 14.2468 39.5292 14.5907C39.1842 14.9346 38.7163 15.1278 38.2284 15.1278Z" fill="#71A1FE"/>
<path id="Vector_7" d="M45.8166 21.3163H31.7899C31.302 21.3163 30.8341 21.1231 30.4891 20.7792C30.1441 20.4353 29.9503 19.9689 29.9503 19.4826C29.9503 18.9963 30.1441 18.5299 30.4891 18.186C30.8341 17.8421 31.302 17.6489 31.7899 17.6489H45.8166C46.3045 17.6489 46.7724 17.8421 47.1174 18.186C47.4624 18.5299 47.6562 18.9963 47.6562 19.4826C47.6562 19.9689 47.4624 20.4353 47.1174 20.7792C46.7724 21.1231 46.3045 21.3163 45.8166 21.3163Z" fill="#E6E6E6"/>
<path id="Vector_8" d="M85.0053 37.8197H45.2246C44.7367 37.8197 44.2688 37.6265 43.9238 37.2826C43.5788 36.9387 43.385 36.4723 43.385 35.986C43.385 35.4997 43.5788 35.0333 43.9238 34.6894C44.2688 34.3455 44.7367 34.1523 45.2246 34.1523H85.0053C85.4932 34.1523 85.9611 34.3455 86.3061 34.6894C86.6511 35.0333 86.8449 35.4997 86.8449 35.986C86.8449 36.4723 86.6511 36.9387 86.3061 37.2826C85.9611 37.6265 85.4932 37.8197 85.0053 37.8197Z" fill="#71A1FE"/>
<path id="Vector_9" d="M88.6844 44.9252H41.3154C40.8275 44.9252 40.3596 44.732 40.0146 44.3881C39.6696 44.0442 39.4758 43.5778 39.4758 43.0915C39.4758 42.6052 39.6696 42.1388 40.0146 41.7949C40.3596 41.451 40.8275 41.2578 41.3154 41.2578H88.6844C89.1723 41.2578 89.6402 41.451 89.9852 41.7949C90.3302 42.1388 90.524 42.6052 90.524 43.0915C90.524 43.5778 90.3302 44.0442 89.9852 44.3881C89.6402 44.732 89.1723 44.9252 88.6844 44.9252Z" fill="#E6E6E6"/>
<path id="Vector_10" d="M88.6844 51.8011H41.3154C40.8275 51.8011 40.3596 51.6079 40.0146 51.2641C39.6696 50.9202 39.4758 50.4538 39.4758 49.9675C39.4758 49.4811 39.6696 49.0147 40.0146 48.6709C40.3596 48.327 40.8275 48.1338 41.3154 48.1338H88.6844C89.1723 48.1338 89.6402 48.327 89.9852 48.6709C90.3302 49.0147 90.524 49.4811 90.524 49.9675C90.524 50.4538 90.3302 50.9202 89.9852 51.2641C89.6402 51.6079 89.1723 51.8011 88.6844 51.8011Z" fill="#E6E6E6"/>
</g>
<defs>
<clipPath id="clip0_647_4498">
<rect width="129" height="113" fill="white" transform="translate(0.5)"/>
</clipPath>
</defs>
</svg>
