<svg width="48" height="48" viewBox="0 0 48 48" fill="none" xmlns="http://www.w3.org/2000/svg">
<rect width="48" height="48" rx="24" fill="white"/>
<path d="M19.248 33V22M14.248 24V31C14.248 32.1046 15.1435 33 16.248 33H29.6743C31.155 33 32.4143 31.9197 32.6394 30.4562L33.7163 23.4562C33.9959 21.6389 32.5899 20 30.7512 20H27.248C26.6958 20 26.248 19.5523 26.248 19V15.4658C26.248 14.104 25.1441 13 23.7822 13C23.4574 13 23.163 13.1913 23.0311 13.4881L19.512 21.4061C19.3515 21.7673 18.9934 22 18.5982 22H16.248C15.1435 22 14.248 22.8954 14.248 24Z" stroke="#71A1FE" stroke-width="2" stroke-linecap="round" stroke-linejoin="round"/>
</svg>
