<svg width="24" height="26" viewBox="0 0 24 26" fill="none" xmlns="http://www.w3.org/2000/svg">
<g id="Vector" filter="url(#filter0_d_5422_2623)">
<path fill-rule="evenodd" clip-rule="evenodd" d="M7.67781 14.0119H9.26539V12.4754H7.67781V14.0119ZM7.67781 10.8101H9.26539V9.27371H7.67781V10.8101ZM7.67781 7.60926H9.26539V6.07284H7.67781V7.60926ZM11.2067 14.0119H12.7942V12.4754H11.2067V14.0119ZM11.2067 10.8101H12.7942V9.27371H11.2067V10.8101ZM11.2067 7.60926H12.7942V6.07284H11.2067V7.60926ZM14.7364 14.0119H16.324V12.4754H14.7364V14.0119ZM14.7364 10.8101H16.324V9.27371H14.7364V10.8101ZM14.7364 7.60926H16.324V6.07284H14.7364V7.60926ZM18.618 3H5.38287C5.26697 2.99989 5.15219 3.02188 5.04508 3.06473C4.93797 3.10757 4.84063 3.17043 4.75864 3.2497C4.67665 3.32897 4.6116 3.42311 4.56722 3.52672C4.52284 3.63034 4.5 3.7414 4.5 3.85357V19.9757C4.5 20.2474 4.61151 20.5079 4.80999 20.7C5.00848 20.8921 5.27769 21 5.55839 21H10.2365V17.7966C10.2365 17.5702 10.3294 17.3531 10.4948 17.193C10.6602 17.0329 10.8845 16.943 11.1185 16.943H12.8824C13.1163 16.943 13.3407 17.0329 13.5061 17.193C13.6715 17.3531 13.7644 17.5702 13.7644 17.7966V21H18.4416C18.7223 21 18.9915 20.8921 19.19 20.7C19.3885 20.5079 19.5 20.2474 19.5 19.9757V3.85357C19.5 3.62719 19.4071 3.41008 19.2417 3.25C19.0763 3.08993 18.8519 3 18.618 3Z" fill="white"/>
</g>
<defs>
<filter id="filter0_d_5422_2623" x="0.5" y="0" width="23" height="26" filterUnits="userSpaceOnUse" color-interpolation-filters="sRGB">
<feFlood flood-opacity="0" result="BackgroundImageFix"/>
<feColorMatrix in="SourceAlpha" type="matrix" values="0 0 0 0 0 0 0 0 0 0 0 0 0 0 0 0 0 0 127 0" result="hardAlpha"/>
<feOffset dy="1"/>
<feGaussianBlur stdDeviation="2"/>
<feComposite in2="hardAlpha" operator="out"/>
<feColorMatrix type="matrix" values="0 0 0 0 0 0 0 0 0 0 0 0 0 0 0 0 0 0 0.11 0"/>
<feBlend mode="normal" in2="BackgroundImageFix" result="effect1_dropShadow_5422_2623"/>
<feBlend mode="normal" in="SourceGraphic" in2="effect1_dropShadow_5422_2623" result="shape"/>
</filter>
</defs>
</svg>
