<svg width="28" height="16" viewBox="0 0 28 16" fill="none" xmlns="http://www.w3.org/2000/svg">
<g id="Frame" clip-path="url(#clip0_319_2676)">
<path id="Vector" d="M9.25892 15.9998L11.2552 13.9578H5.59476V8.18115L3.59851 10.2231V15.9998H9.25892Z" fill="#FCAF17"/>
<path id="Vector_2" d="M13.606 0L11.6097 2.04198H17.257V7.81864L19.2533 5.77666V0H13.606Z" fill="#FCAF17"/>
<path id="Vector_3" d="M3.11257 3.03613H0V3.15704C0.275797 3.53319 0.446529 3.88248 0.459662 4.48701V12.4937C0.459662 12.5743 0.485929 12.6146 0.551595 12.6415C0.630394 12.6818 0.69606 12.6415 0.814259 12.5206L2.65291 10.6398V4.46015C2.66604 3.85561 2.83677 3.50633 3.11257 3.14361V3.03613Z" fill="#03499A"/>
<path id="Vector_4" d="M28 3.03613H24.8875V3.15704C25.1633 3.51976 25.334 3.85561 25.3471 4.41984V9.21581C25.3471 10.1831 24.5854 10.9622 23.6398 10.9622C22.6942 10.9622 21.9325 10.1831 21.9325 9.21581V3.53319C21.9325 3.42572 21.9325 3.30481 21.8406 3.27795C21.7486 3.25108 21.7092 3.27795 21.591 3.38542L19.7393 5.27963V9.08147C19.7393 11.2847 21.486 13.0714 23.6398 13.0714C25.7937 13.0714 27.5404 11.2847 27.5404 9.08147V4.51388C27.5404 3.88248 27.7111 3.53319 28 3.15704V3.03613Z" fill="#03499A"/>
<path id="Vector_5" d="M15.8124 3.03613H12.713V3.15704C13.0019 3.53319 13.1726 3.89591 13.1726 4.51388V8.65158L10.0863 3.58693L7.56476 6.17971V11.419C7.56476 12.0504 7.39403 12.4131 7.1051 12.7893V12.8968H10.2177V12.7758C9.94188 12.4131 9.77115 12.0638 9.75801 11.4727V7.28131L12.8312 12.346L15.3528 9.76661V4.48701C15.3528 3.86905 15.5235 3.51976 15.8124 3.15704V3.03613Z" fill="#03499A"/>
</g>
<defs>
<clipPath id="clip0_319_2676">
<rect width="28" height="16" fill="white"/>
</clipPath>
</defs>
</svg>
