<svg width="23" height="22" viewBox="0 0 23 22" fill="none" xmlns="http://www.w3.org/2000/svg">
<g id="Icon">
<path d="M11.5 21C17.0228 21 21.5 16.5228 21.5 11C21.5 5.47715 17.0228 1 11.5 1C5.97715 1 1.5 5.47715 1.5 11C1.5 16.5228 5.97715 21 11.5 21Z" stroke="#9B9B9B" stroke-width="2" stroke-linecap="round" stroke-linejoin="round"/>
<path fill-rule="evenodd" clip-rule="evenodd" d="M11.4966 8.06791C10.4969 6.8992 8.82987 6.58482 7.57735 7.65501C6.32482 8.72519 6.14848 10.5145 7.1321 11.7802C7.76211 12.5909 9.37558 14.0942 10.4542 15.0704C10.8127 15.3947 10.9919 15.5569 11.2066 15.622C11.3911 15.6779 11.602 15.6779 11.7866 15.622C12.0012 15.5569 12.1805 15.3947 12.5389 15.0704C13.6176 14.0942 15.231 12.5909 15.8611 11.7802C16.8447 10.5145 16.6899 8.71393 15.4158 7.65501C14.1417 6.59608 12.4963 6.8992 11.4966 8.06791Z" stroke="#9B9B9B" stroke-width="2" stroke-linecap="round" stroke-linejoin="round"/>
</g>
</svg>
