<svg width="22" height="21" viewBox="0 0 22 21" fill="none" xmlns="http://www.w3.org/2000/svg">
<g id="Frame 11130">
<path id="Vector" fill-rule="evenodd" clip-rule="evenodd" d="M14.6811 12.9439C14.7624 13.0251 14.8268 13.1216 14.8708 13.2277C14.9147 13.3338 14.9374 13.4476 14.9374 13.5625C14.9374 13.6774 14.9147 13.7912 14.8708 13.8973C14.8268 14.0034 14.7624 14.0999 14.6811 14.1811C14.5999 14.2624 14.5034 14.3268 14.3973 14.3708C14.2912 14.4147 14.1774 14.4374 14.0625 14.4374C13.9476 14.4374 13.8338 14.4147 13.7277 14.3708C13.6216 14.3268 13.5251 14.2624 13.4439 14.1811L11 11.7372L8.55612 14.1811C8.47505 14.2627 8.37866 14.3274 8.2725 14.3715C8.16633 14.4157 8.05248 14.4384 7.9375 14.4384C7.82252 14.4384 7.70867 14.4157 7.6025 14.3715C7.49634 14.3274 7.39995 14.2627 7.31888 14.1811C7.23755 14.0999 7.17303 14.0035 7.12901 13.8974C7.08498 13.7912 7.06232 13.6774 7.06232 13.5625C7.06232 13.4476 7.08498 13.3338 7.12901 13.2276C7.17303 13.1215 7.23755 13.0251 7.31888 12.9439L9.76275 10.5L7.31888 8.05612C7.23764 7.97489 7.17319 7.87844 7.12923 7.7723C7.08526 7.66615 7.06263 7.55239 7.06263 7.4375C7.06263 7.32261 7.08526 7.20885 7.12923 7.1027C7.17319 6.99656 7.23764 6.90011 7.31887 6.81887C7.40011 6.73764 7.49656 6.67319 7.6027 6.62923C7.70885 6.58526 7.82261 6.56263 7.9375 6.56263C8.05239 6.56263 8.16615 6.58526 8.2723 6.62923C8.37844 6.67319 8.47489 6.73764 8.55612 6.81888L11 9.26275L13.4439 6.81888C13.5251 6.73764 13.6216 6.67319 13.7277 6.62923C13.8338 6.58526 13.9476 6.56263 14.0625 6.56263C14.1774 6.56263 14.2912 6.58526 14.3973 6.62923C14.5034 6.67319 14.5999 6.73764 14.6811 6.81888C14.7624 6.90011 14.8268 6.99656 14.8708 7.1027C14.9147 7.20885 14.9374 7.32261 14.9374 7.4375C14.9374 7.55239 14.9147 7.66615 14.8708 7.7723C14.8268 7.87844 14.7624 7.97489 14.6811 8.05612L12.2372 10.5L14.6811 12.9439ZM11 0.875C5.68438 0.875 1.375 5.18438 1.375 10.5C1.375 15.8156 5.68438 20.125 11 20.125C16.3156 20.125 20.625 15.8156 20.625 10.5C20.625 5.18438 16.3156 0.875 11 0.875Z" fill="#9B9B9B"/>
</g>
</svg>
