<svg width="20" height="20" viewBox="0 0 20 20" fill="none" xmlns="http://www.w3.org/2000/svg">
<g id="Group 1604">
<circle id="Ellipse 23" cx="10" cy="10" r="9.5" fill="#5B5B5B"/>
<path id="Vector" fill-rule="evenodd" clip-rule="evenodd" d="M10.9913 9.99972L14.2943 6.69753C14.3595 6.63241 14.4112 6.55511 14.4464 6.47002C14.4817 6.38493 14.4999 6.29373 14.4999 6.20162C14.5 6.10951 14.4818 6.01829 14.4466 5.93318C14.4114 5.84807 14.3597 5.77074 14.2946 5.70558C14.2295 5.64043 14.1521 5.58874 14.067 5.55347C13.9819 5.5182 13.8907 5.50003 13.7986 5.5C13.7064 5.49997 13.6152 5.51809 13.5301 5.55331C13.4449 5.58854 13.3676 5.64018 13.3024 5.70529L9.99947 9.00807L6.69594 5.70529C6.56289 5.58104 6.38675 5.51334 6.20471 5.51647C6.02267 5.5196 5.84897 5.59332 5.72027 5.72207C5.59157 5.85082 5.51793 6.02452 5.51491 6.20652C5.51189 6.38852 5.57971 6.56458 5.70406 6.69753L9.00759 9.99972L5.70406 13.3019C5.60643 13.4002 5.54004 13.5252 5.51326 13.6611C5.48647 13.797 5.50047 13.9378 5.55351 14.0657C5.60655 14.1937 5.69625 14.3031 5.81133 14.3803C5.92641 14.4574 6.06174 14.4988 6.20029 14.4993C6.37973 14.4993 6.55917 14.4309 6.69594 14.2941L9.99947 10.9914L13.3024 14.2941C13.3675 14.3594 13.4448 14.4112 13.5299 14.4465C13.615 14.4818 13.7062 14.5 13.7984 14.5C13.8905 14.5 13.9817 14.4818 14.0668 14.4465C14.1519 14.4112 14.2292 14.3594 14.2943 14.2941C14.3595 14.229 14.4112 14.1517 14.4465 14.0666C14.4818 13.9814 14.5 13.8902 14.5 13.798C14.5 13.7059 14.4818 13.6146 14.4465 13.5295C14.4112 13.4444 14.3595 13.367 14.2943 13.3019L10.9913 9.99972Z" fill="white"/>
</g>
</svg>
