<svg width="14" height="14" viewBox="0 0 14 14" fill="none" xmlns="http://www.w3.org/2000/svg">
<path d="M3.83268 13.5V6.35M0.5 7.65V12.2C0.5 12.918 1.09684 13.5 1.83307 13.5H10.7822C11.7691 13.5 12.6084 12.7978 12.7585 11.8465L13.4763 7.29651C13.6627 6.11528 12.7255 5.05 11.5 5.05H9.16497C8.79686 5.05 8.49844 4.75898 8.49844 4.4V2.1028C8.49844 1.2176 7.76258 0.5 6.85487 0.5C6.63836 0.5 6.44216 0.624342 6.35423 0.81728L4.00861 5.96399C3.90163 6.19872 3.66293 6.35 3.39952 6.35H1.83307C1.09684 6.35 0.5 6.93203 0.5 7.65Z" stroke="#5B5B5B" stroke-linecap="round" stroke-linejoin="round"/>
</svg>
