<svg width="190" height="222" viewBox="0 0 190 222" fill="none" xmlns="http://www.w3.org/2000/svg">
<g id="Frame 37283">
<g id="Group 36941">
<ellipse id="Ellipse 39" cx="121" cy="64.5" rx="62" ry="64.5" fill="#F2F5FA"/>
<ellipse id="Ellipse 40" cx="71" cy="145.5" rx="71" ry="64.5" fill="#F2F5FA"/>
<g id="Group">
<g id="Group_2">
<path id="Vector" d="M105.832 221.145H101.829C97.9647 221.145 94.7969 217.982 94.7969 214.124V195.113C94.7969 192.124 97.2511 189.674 100.245 189.674H107.433C110.427 189.674 112.882 192.124 112.882 195.113V214.124C112.864 217.982 109.696 221.145 105.832 221.145Z" fill="white" stroke="#5B5B5B" stroke-width="1.15049" stroke-miterlimit="10" stroke-linecap="round"/>
<path id="Vector_2" d="M101.498 217.758V220.816" stroke="#5B5B5B" stroke-width="1.15049" stroke-miterlimit="10" stroke-linecap="round"/>
<path id="Vector_3" d="M106.896 217.758V220.816" stroke="#5B5B5B" stroke-width="1.15049" stroke-miterlimit="10" stroke-linecap="round"/>
</g>
<g id="Group_3">
<path id="Vector_4" d="M131.596 221.145H127.592C123.728 221.145 120.561 217.982 120.561 214.124V195.113C120.561 192.124 123.015 189.674 126.009 189.674H133.197C136.191 189.674 138.645 192.124 138.645 195.113V214.124C138.628 217.982 135.46 221.145 131.596 221.145Z" fill="white" stroke="#5B5B5B" stroke-width="1.15049" stroke-miterlimit="10" stroke-linecap="round"/>
<path id="Vector_5" d="M127.262 217.758V220.816" stroke="#5B5B5B" stroke-width="1.15049" stroke-miterlimit="10" stroke-linecap="round"/>
<path id="Vector_6" d="M132.657 217.758V220.816" stroke="#5B5B5B" stroke-width="1.15049" stroke-miterlimit="10" stroke-linecap="round"/>
</g>
<path id="Vector_7" d="M186.336 82.1039C185.587 74.4751 179.582 68.3407 171.349 65.6819C171.384 64.8651 171.367 64.0484 171.297 63.2316C170.2 52.1272 157.982 44.2029 143.987 45.5062C140.819 45.8016 137.843 46.5489 135.128 47.6611C130.237 41.7352 121.412 38.2249 111.752 39.1459C103.971 39.8758 97.2875 43.3166 93.0753 48.1303C88.7238 46.2187 83.5891 45.3324 78.1585 45.8538C65.3652 47.0528 55.5309 55.5853 54.7999 65.5255C44.3564 68.8794 37.2897 77.3945 38.1948 86.6222C38.5951 90.7407 40.5445 94.4074 43.5209 97.3443C39.0302 101.463 36.5064 106.919 37.0808 112.654C37.7596 119.449 42.5984 125.062 49.4737 128.086C47.4198 131.37 46.4103 135.089 46.7932 138.929C47.8898 150.034 60.1087 157.958 74.1029 156.655C74.3466 156.637 74.5729 156.603 74.8166 156.585C78.3848 165.135 89.0197 170.731 100.943 169.619C105.729 169.167 110.098 167.69 113.736 165.5C118.766 169.132 125.711 171.044 133.161 170.349C144.422 169.289 153.386 162.563 155.875 154.187C169.295 152.449 179.164 142.631 178.085 131.839C177.998 131.023 177.859 130.206 177.667 129.424C185.222 125.27 189.904 118.146 189.155 110.517C188.616 104.973 185.291 100.229 180.365 97.0141C184.56 92.9303 186.875 87.6475 186.336 82.1039ZM96.2431 129.476C94.2937 124.819 90.2555 121.03 85.0338 118.736C87.0877 115.469 88.0972 111.751 87.7143 107.893C87.3139 103.774 85.3645 100.107 82.3881 97.1705C86.1478 93.7297 88.5149 89.3505 88.8631 84.6758C93.7367 83.1118 97.8793 80.4183 100.803 77.0644C105.155 78.9759 110.29 79.8622 115.72 79.3408C118.888 79.0454 121.864 78.2982 124.58 77.186C127.26 80.4356 131.107 82.9554 135.65 84.4152C135.615 85.2319 135.632 86.0487 135.702 86.8654C136.242 92.409 139.566 97.1531 144.492 100.368C140.28 104.434 137.947 109.717 138.504 115.261C138.591 116.078 138.731 116.894 138.922 117.676C133.509 120.648 129.575 125.149 128.044 130.275C123.692 130.831 119.724 132.239 116.382 134.255C111.351 130.623 104.406 128.711 96.9568 129.406C96.7131 129.424 96.4868 129.459 96.2431 129.476Z" fill="#FACD5B" stroke="#5B5B5B" stroke-width="1.15049" stroke-miterlimit="10"/>
<g id="Group_4">
<path id="Vector_8" d="M138.154 182.219C138.154 189.118 149.747 194.696 164.089 194.696" stroke="#5B5B5B" stroke-width="1.15049" stroke-miterlimit="10"/>
</g>
<path id="Vector_9" d="M170.755 196.004C167.796 196.994 164.089 194.075 164.089 194.075C164.089 194.075 165.185 189.556 168.144 188.566C171.103 187.575 174.08 188.444 174.811 190.495C175.524 192.563 173.714 195.013 170.755 196.004Z" fill="#FACD5B" stroke="#5B5B5B" stroke-width="1.15049" stroke-miterlimit="10"/>
<path id="Vector_10" d="M149.384 145.206C157.094 137.351 161.794 126.977 161.794 115.594C161.794 107.375 159.34 99.6763 155.075 93.0728C157.599 90.4487 159.096 86.9731 158.992 83.1848C158.783 75.4516 151.855 69.1782 143.396 69.074C138.401 69.0045 133.945 71.0551 130.986 74.2873C125.485 72.3063 119.48 71.2288 113.214 71.2288C106.948 71.2288 100.943 72.3236 95.4431 74.2873C92.4841 71.0551 88.0282 69.0045 83.0327 69.074C74.5735 69.1956 67.646 75.4516 67.4371 83.1848C67.3327 86.9731 68.8296 90.4487 71.3534 93.0728C67.089 99.6763 64.6348 107.375 64.6348 115.594C64.6348 127.724 69.9609 138.707 78.5768 146.718C80.0563 147.604 80.857 148.578 80.5959 150.246C80.4218 151.341 80.3348 153.131 80.3348 154.277V174.992C80.3348 191.57 95.182 201.493 113.336 201.493H116.8C134.954 201.493 150.498 191.588 150.498 174.992L149.801 154.277C149.54 152.088 149.088 150.333 148.392 148.178C148.148 147.344 148.74 145.797 149.384 145.206Z" fill="white" stroke="#5B5B5B" stroke-width="1.15049" stroke-miterlimit="10"/>
<path id="Vector_11" d="M148.584 78.297C145.695 75.4817 141.012 75.4817 138.123 78.297L148.584 88.4977C151.473 85.6825 151.473 81.1122 148.584 78.297Z" fill="#FACD5B" stroke="#5B5B5B" stroke-width="1.15049" stroke-miterlimit="10"/>
<path id="Vector_12" d="M77.8965 78.297C75.0072 81.1122 75.0072 85.6825 77.8965 88.4977L88.3574 78.297C85.468 75.4817 80.7859 75.4817 77.8965 78.297Z" fill="#FACD5B" stroke="#5B5B5B" stroke-width="1.15049" stroke-miterlimit="10"/>
<path id="Vector_13" d="M126.5 112.032C127.246 112.285 127.839 112.671 128.199 113.061C128.577 113.471 128.61 113.77 128.558 113.922C128.507 114.073 128.298 114.29 127.749 114.385C127.224 114.475 126.519 114.421 125.773 114.167C125.027 113.914 124.434 113.528 124.074 113.138C123.696 112.728 123.663 112.429 123.715 112.278C123.767 112.126 123.975 111.909 124.525 111.814C125.049 111.724 125.754 111.778 126.5 112.032Z" fill="black" stroke="#5B5B5B" stroke-width="1.15049"/>
<path id="Vector_14" d="M102.335 112.054C102.402 112.202 102.399 112.503 102.067 112.945C101.75 113.368 101.204 113.808 100.491 114.132C99.7786 114.456 99.0869 114.578 98.5594 114.539C98.0075 114.498 97.7781 114.303 97.7109 114.156C97.6437 114.008 97.647 113.708 97.9787 113.265C98.2958 112.843 98.8424 112.402 99.555 112.078C100.267 111.755 100.959 111.632 101.487 111.671C102.039 111.712 102.268 111.907 102.335 112.054Z" fill="black" stroke="#5B5B5B" stroke-width="1.15049"/>
<g id="Group_5">
<path id="Vector_15" d="M107.42 123.898C110.592 123.898 113.164 121.883 113.164 119.397C113.164 116.912 110.592 114.896 107.42 114.896C104.247 114.896 101.676 116.912 101.676 119.397C101.676 121.883 104.247 123.898 107.42 123.898Z" fill="white" stroke="#5B5B5B" stroke-width="1.15049" stroke-miterlimit="10"/>
<path id="Vector_16" d="M118.838 123.986C122.01 123.986 124.582 121.971 124.582 119.485C124.582 116.999 122.01 114.984 118.838 114.984C115.665 114.984 113.094 116.999 113.094 119.485C113.094 121.971 115.665 123.986 118.838 123.986Z" fill="white" stroke="#5B5B5B" stroke-width="1.15049" stroke-miterlimit="10"/>
</g>
<path id="Vector_17" d="M116.467 116.149C116.467 117.609 112.899 118.791 112.899 118.791C112.899 118.791 109.331 117.609 109.331 116.149C109.331 114.69 110.932 113.508 112.899 113.508C114.884 113.508 116.467 114.69 116.467 116.149Z" fill="#FACD5B" stroke="#5B5B5B" stroke-width="1.15049" stroke-miterlimit="10"/>
<g id="Group_6">
<g id="Group_7">
<path id="Vector_18" d="M96.5378 158.685C101.296 158.685 105.154 156.141 105.154 153.003C105.154 149.864 101.296 147.32 96.5378 147.32C91.7793 147.32 87.9219 149.864 87.9219 153.003C87.9219 156.141 91.7793 158.685 96.5378 158.685Z" fill="white" stroke="#5B5B5B" stroke-width="1.15049" stroke-miterlimit="10"/>
<path id="Vector_19" d="M93.3174 155.293V158.056" stroke="#5B5B5B" stroke-width="1.15049" stroke-miterlimit="10" stroke-linecap="round"/>
</g>
<path id="Vector_20" d="M98.8877 155.299V158.357" stroke="#5B5B5B" stroke-width="1.15049" stroke-miterlimit="10" stroke-linecap="round"/>
</g>
<g id="Group_8">
<g id="Group_9">
<path id="Vector_21" d="M132.937 158.685C137.696 158.685 141.553 156.141 141.553 153.003C141.553 149.864 137.696 147.32 132.937 147.32C128.179 147.32 124.321 149.864 124.321 153.003C124.321 156.141 128.179 158.685 132.937 158.685Z" fill="white" stroke="#5B5B5B" stroke-width="1.15049" stroke-miterlimit="10"/>
<path id="Vector_22" d="M129.717 155.299V158.062" stroke="#5B5B5B" stroke-width="1.15049" stroke-miterlimit="10" stroke-linecap="round"/>
</g>
<path id="Vector_23" d="M135.286 155.299V158.357" stroke="#5B5B5B" stroke-width="1.15049" stroke-miterlimit="10" stroke-linecap="round"/>
</g>
</g>
</g>
</g>
</svg>
