<svg width="21" height="19" viewBox="0 0 21 19" fill="none" xmlns="http://www.w3.org/2000/svg">
<g id="Group 1603">
<path id="Vector" d="M12.9317 3.0877C12.1372 2.89695 11.3252 2.7832 10.5001 2.7832C6.81457 2.7832 3.32945 4.76158 1.03432 8.0577C0.435824 8.91695 0.435824 10.0833 1.03432 10.9426C1.59432 11.7467 2.22695 12.4686 2.91382 13.1065L12.9317 3.0877Z" fill="#8B95A1"/>
<path id="Vector_2" d="M19.9664 8.05755C19.0477 6.73805 17.932 5.64168 16.6939 4.79118L18.9418 2.54331C19.3522 2.13293 19.3522 1.46793 18.9418 1.05843C18.5314 0.64893 17.8664 0.648055 17.4569 1.05843L2.05778 16.4558C1.64741 16.8662 1.64741 17.5312 2.05778 17.9407C2.26253 18.1454 2.53203 18.2487 2.80066 18.2487C3.06928 18.2487 3.33791 18.1463 3.54353 17.9407L6.20703 15.2772C7.56241 15.8818 9.01228 16.2161 10.4998 16.2161C14.1862 16.2161 17.6713 14.2377 19.9664 10.9416C20.564 10.0832 20.564 8.91681 19.9664 8.05755ZM10.4989 12.9768C9.92228 12.9768 9.38416 12.8272 8.90728 12.5761L13.5754 7.90793C13.8265 8.3848 13.9762 8.92205 13.9762 9.49868C13.9762 11.4176 12.416 12.9768 10.4989 12.9768Z" fill="#8B95A1"/>
</g>
</svg>
