<svg width="125" height="42" viewBox="0 0 125 42" fill="none" xmlns="http://www.w3.org/2000/svg">
<path d="M13.8787 27.7043C13.8787 19.3297 19.1048 14.305 24.4007 14.305C27.2112 14.305 28.8836 15.3286 30.5328 16.9569L30.2308 13.1419V4.60449C34.644 4.60449 38.2443 8.18693 38.2443 12.6301V40.4289H31.7174L31.1367 37.9631H30.9509C29.1623 39.7543 26.7002 41.057 24.2846 41.057C17.9435 41.057 13.8787 35.9858 13.8787 27.7043ZM30.2076 32.3568V22.3073C28.9998 21.1907 27.6061 20.772 26.2589 20.772C24.0755 20.772 22.0547 22.8424 22.0547 27.5414C22.0547 32.4266 23.6574 34.497 26.3983 34.497C27.9313 34.5202 29.1391 34.0084 30.2076 32.3568Z" fill="white"/>
<path d="M40.3547 27.7463C40.3547 19.3053 46.3462 14.3892 52.8486 14.3892C59.2812 14.3892 65.2959 19.3053 65.2959 27.7463C65.2959 36.1409 59.3045 41.0571 52.8486 41.0571C46.3462 41.0571 40.3547 36.1409 40.3547 27.7463ZM57.1448 27.7463C57.1448 23.5026 55.7978 20.8126 52.8486 20.8126C49.8528 20.8126 48.5059 23.5026 48.5059 27.7463C48.5059 31.9436 49.8528 34.6336 52.8486 34.6336C55.7978 34.6104 57.1448 31.9436 57.1448 27.7463Z" fill="white"/>
<path d="M74.0497 15.0159L74.5816 19.4498H74.7666C76.6396 16.0606 79.4377 14.3892 81.9813 14.3892C83.5075 14.3892 84.34 14.6213 85.0569 14.9231L83.7156 21.7712C82.8138 21.539 82.0738 21.3765 80.9639 21.3765C79.0908 21.3765 76.8246 22.5836 75.4834 25.9496V32.5656C75.4834 36.9298 71.9454 40.4815 67.598 40.4815V21.5158C67.598 17.9177 70.4886 15.0159 74.0497 15.0159Z" fill="white"/>
<path d="M86.5918 15.0165H93.0611L93.5944 18.2461H93.7799C95.89 16.1317 98.0696 14.3892 101.501 14.3892C105.026 14.3892 107.182 15.8762 108.481 18.5946C110.66 16.3641 113.049 14.3892 116.434 14.3892C121.976 14.3892 124.387 18.3623 124.387 24.7285V32.5121C124.387 36.9034 120.816 40.4815 116.434 40.4815V25.7044C116.434 22.2192 115.53 21.1736 113.536 21.1736C112.376 21.1736 110.985 21.8939 109.478 23.4506V40.4815H101.478V25.7044C101.478 22.2192 100.574 21.1736 98.5797 21.1736C97.4203 21.1736 96.0291 21.8939 94.5219 23.4506V40.4815H86.615V15.0165H86.5918Z" fill="white"/>
<path d="M9.4828 42.0002C5.32063 42.0002 1.95325 38.617 1.95325 34.4353V16.1533H9.4828V42.0002Z" fill="white"/>
<ellipse cx="5.85537" cy="5.86049" rx="5.85537" ry="5.86049" fill="white"/>
</svg>
