<svg width="21" height="21" viewBox="0 0 21 21" fill="none" xmlns="http://www.w3.org/2000/svg">
<g id="icon-check-circle-mono" clip-path="url(#clip0_5273_1553)">
<path id="Vector" fill-rule="evenodd" clip-rule="evenodd" d="M15.0561 8.93813L10.171 13.8241C10.0064 13.9876 9.78389 14.0793 9.55194 14.0793C9.31999 14.0793 9.09745 13.9876 8.93287 13.8241L5.94388 10.8351C5.86264 10.7539 5.79819 10.6574 5.75423 10.5513C5.71026 10.4452 5.68763 10.3314 5.68763 10.2165C5.68763 9.98447 5.77981 9.76194 5.94388 9.59787C6.10794 9.43381 6.33047 9.34163 6.5625 9.34163C6.79453 9.34163 7.01706 9.43381 7.18112 9.59787L9.5515 11.9683L13.8189 7.70087C13.9001 7.61964 13.9966 7.55519 14.1027 7.51123C14.2088 7.46726 14.3226 7.44463 14.4375 7.44463C14.5524 7.44463 14.6662 7.46726 14.7723 7.51123C14.8784 7.55519 14.9749 7.61964 15.0561 7.70087C15.1374 7.78211 15.2018 7.87856 15.2458 7.9847C15.2897 8.09085 15.3124 8.20461 15.3124 8.3195C15.3124 8.43439 15.2897 8.54815 15.2458 8.6543C15.2018 8.76044 15.1374 8.85689 15.0561 8.93813ZM10.5 0.875C5.18438 0.875 0.875 5.18438 0.875 10.5C0.875 15.8156 5.18438 20.125 10.5 20.125C15.8156 20.125 20.125 15.8156 20.125 10.5C20.125 5.18438 15.8156 0.875 10.5 0.875Z" fill="#71A1FE"/>
</g>
<defs>
<clipPath id="clip0_5273_1553">
<rect width="21" height="21" fill="white"/>
</clipPath>
</defs>
</svg>
