<svg width="20" height="20" viewBox="0 0 20 20" fill="none" xmlns="http://www.w3.org/2000/svg">
<path id="Vector" fill-rule="evenodd" clip-rule="evenodd" d="M12.771 2.60039C13.0175 2.60839 13.2512 2.71193 13.4228 2.88912C13.5943 3.06632 13.6902 3.30327 13.6902 3.54989C13.6902 3.79651 13.5943 4.03346 13.4228 4.21066C13.2512 4.38785 13.0175 4.49139 12.771 4.49939C12.5245 4.49139 12.2908 4.38785 12.1193 4.21066C11.9477 4.03346 11.8518 3.79651 11.8518 3.54989C11.8518 3.30327 11.9477 3.06632 12.1193 2.88912C12.2908 2.71193 12.5245 2.60839 12.771 2.60039ZM1.50002 4.64939H9.83002C10.0532 5.24989 10.4544 5.76795 10.98 6.13429C11.5055 6.50062 12.1304 6.69778 12.771 6.69939C13.4115 6.69758 14.0361 6.50032 14.5615 6.134C15.0869 5.76768 15.4879 5.24973 15.711 4.64939H18.5C18.7918 4.64939 19.0716 4.5335 19.2778 4.32721C19.4841 4.12092 19.6 3.84113 19.6 3.54939C19.6 3.25765 19.4841 2.97786 19.2778 2.77157C19.0716 2.56528 18.7918 2.44939 18.5 2.44939H15.711C15.4877 1.84923 15.0866 1.3315 14.5613 0.965369C14.0359 0.599234 13.4114 0.40213 12.771 0.400391C12.1306 0.402209 11.5059 0.599329 10.9804 0.96544C10.4549 1.33155 10.0536 1.84923 9.83002 2.44939H1.50002C1.20829 2.44939 0.928497 2.56528 0.722207 2.77157C0.515917 2.97786 0.400024 3.25765 0.400024 3.54939C0.400024 3.84113 0.515917 4.12092 0.722207 4.32721C0.928497 4.5335 1.20829 4.64939 1.50002 4.64939ZM18.5 8.89939H1.50002C1.20829 8.89939 0.928497 9.01528 0.722207 9.22157C0.515917 9.42786 0.400024 9.70765 0.400024 9.99939C0.400024 10.2911 0.515917 10.5709 0.722207 10.7772C0.928497 10.9835 1.20829 11.0994 1.50002 11.0994H18.5C18.7918 11.0994 19.0716 10.9835 19.2778 10.7772C19.4841 10.5709 19.6 10.2911 19.6 9.99939C19.6 9.70765 19.4841 9.42786 19.2778 9.22157C19.0716 9.01528 18.7918 8.89939 18.5 8.89939ZM7.22902 17.4004C6.98487 17.3892 6.75443 17.2843 6.58562 17.1076C6.4168 16.9308 6.3226 16.6958 6.3226 16.4514C6.3226 16.207 6.4168 15.972 6.58562 15.7952C6.75443 15.6185 6.98487 15.5136 7.22902 15.5024C7.47551 15.5104 7.70923 15.6139 7.88077 15.7911C8.0523 15.9683 8.14821 16.2053 8.14821 16.4519C8.14821 16.6985 8.0523 16.9355 7.88077 17.1127C7.70923 17.2899 7.47551 17.3934 7.22902 17.4014M18.5 15.3504H10.17C9.94684 14.7499 9.54565 14.2318 9.02009 13.8655C8.49453 13.4992 7.86966 13.302 7.22902 13.3004C6.58856 13.3022 5.96391 13.4995 5.43855 13.8658C4.91319 14.2321 4.51215 14.75 4.28902 15.3504H1.50002C1.20829 15.3504 0.928497 15.4663 0.722207 15.6726C0.515917 15.8789 0.400024 16.1587 0.400024 16.4504C0.400024 16.7421 0.515917 17.0219 0.722207 17.2282C0.928497 17.4345 1.20829 17.5504 1.50002 17.5504H4.28902C4.51215 18.1507 4.91319 18.6687 5.43855 19.035C5.96391 19.4013 6.58856 19.5986 7.22902 19.6004C7.86959 19.5985 8.49434 19.4012 9.01984 19.0349C9.54535 18.6686 9.9466 18.1507 10.17 17.5504H18.5C18.7918 17.5504 19.0716 17.4345 19.2778 17.2282C19.4841 17.0219 19.6 16.7421 19.6 16.4504C19.6 16.1587 19.4841 15.8789 19.2778 15.6726C19.0716 15.4663 18.7918 15.3504 18.5 15.3504Z" fill="white"/>
</svg>
