<svg width="11" height="9" viewBox="0 0 11 9" fill="none" xmlns="http://www.w3.org/2000/svg">
<path id="&#226;&#128;&#157;" d="M1.20802 8.808C3.63202 7.584 4.83202 5.736 4.83202 3.264C4.83202 1.2 4.01602 0 2.50402 0C1.37602 0 0.584016 0.792 0.584016 2.016C0.584016 3.168 1.47202 3.864 2.50402 3.864C2.57602 3.864 2.67202 3.864 2.74402 3.84C2.72002 5.424 1.95202 6.408 0.416016 7.272L1.20802 8.808ZM7.20802 8.808C9.63202 7.584 10.832 5.736 10.832 3.264C10.832 1.2 10.016 0 8.50402 0C7.37602 0 6.58402 0.792 6.58402 2.016C6.58402 3.168 7.47202 3.864 8.50402 3.864C8.57602 3.864 8.67202 3.864 8.74402 3.84C8.72002 5.424 7.95202 6.408 6.41602 7.272L7.20802 8.808Z" fill="#E3E1EC"/>
</svg>
