<svg width="18" height="18" viewBox="0 0 18 18" fill="none" xmlns="http://www.w3.org/2000/svg">
<path id="Vector" fill-rule="evenodd" clip-rule="evenodd" d="M13.4995 4.29709C13.4996 4.86144 13.3833 5.42029 13.1572 5.94171C12.9311 6.46313 12.5998 6.93692 12.182 7.33602C11.7642 7.73513 11.2682 8.05173 10.7223 8.26775C10.1764 8.48378 9.59135 8.59499 9.00046 8.59505C7.80711 8.59517 6.66258 8.1425 5.81867 7.33664C4.97476 6.53078 4.50058 5.43774 4.50046 4.29796C4.5004 3.7336 4.61672 3.17476 4.84279 2.65334C5.06886 2.13192 5.40024 1.65813 5.81802 1.25903C6.66176 0.453002 7.80619 0.000116445 8.99954 2.24519e-08C10.1929 -0.0001164 11.3374 0.452545 12.1813 1.25841C13.0252 2.06427 13.4994 3.15731 13.4995 4.29709ZM9 9.90977C2.52048 9.90977 0 13.8482 0 15.6805C0 17.5119 5.36544 18 9 18C12.6346 18 18 17.5119 18 15.6805C18 13.8482 15.4795 9.90977 9 9.90977Z" fill="#E3E1EC"/>
</svg>
