<svg width="165" height="196" viewBox="0 0 165 196" fill="none" xmlns="http://www.w3.org/2000/svg">
<g id="Group">
<g id="Group_2">
<path id="Vector" d="M74.3141 195H70.0502C65.9346 195 62.5605 191.632 62.5605 187.523V167.274C62.5605 164.09 65.1745 161.48 68.3632 161.48H76.0197C79.2084 161.48 81.8223 164.09 81.8223 167.274V187.523C81.8038 191.632 78.4297 195 74.3141 195Z" fill="white" stroke="#5B5B5B" stroke-width="2" stroke-miterlimit="10" stroke-linecap="round"/>
<path id="Vector_2" d="M69.6982 191.391V194.648" stroke="#5B5B5B" stroke-width="2" stroke-miterlimit="10" stroke-linecap="round"/>
<path id="Vector_3" d="M75.4453 191.391V194.648" stroke="#5B5B5B" stroke-width="2" stroke-miterlimit="10" stroke-linecap="round"/>
</g>
<g id="Group_3">
<path id="Vector_4" d="M101.752 195H97.4877C93.3721 195 89.998 191.632 89.998 187.523V167.274C89.998 164.09 92.612 161.48 95.8007 161.48H103.457C106.646 161.48 109.26 164.09 109.26 167.274V187.523C109.241 191.632 105.867 195 101.752 195Z" fill="white" stroke="#5B5B5B" stroke-width="2" stroke-miterlimit="10" stroke-linecap="round"/>
<path id="Vector_5" d="M97.1357 191.391V194.648" stroke="#5B5B5B" stroke-width="2" stroke-miterlimit="10" stroke-linecap="round"/>
<path id="Vector_6" d="M102.883 191.391V194.648" stroke="#5B5B5B" stroke-width="2" stroke-miterlimit="10" stroke-linecap="round"/>
</g>
<path id="Vector_7" d="M160.056 46.9096C159.259 38.7842 152.863 32.2505 144.094 29.4186C144.131 28.5487 144.113 27.6788 144.039 26.8089C142.871 14.9816 129.856 6.54153 114.951 7.9297C111.577 8.24436 108.407 9.04024 105.515 10.2248C100.306 3.91326 90.9064 0.17444 80.6174 1.15542C72.3306 1.93279 65.2117 5.59757 60.7253 10.7246C56.0906 8.68857 50.6217 7.74462 44.8376 8.29988C31.2116 9.577 20.7372 18.6649 19.9585 29.2521C8.83526 32.8243 1.30852 41.8937 2.27253 51.722C2.69892 56.1086 4.77527 60.014 7.9454 63.142C3.16239 67.5286 0.47427 73.3405 1.08605 79.4484C1.80906 86.6854 6.96284 92.6638 14.2857 95.8844C12.0981 99.3826 11.0228 103.344 11.4307 107.434C12.5986 119.261 25.6129 127.701 40.518 126.313C40.7776 126.295 41.0186 126.258 41.2781 126.239C45.0786 135.346 56.4058 141.305 69.1048 140.121C74.203 139.64 78.8562 138.066 82.7308 135.734C88.0885 139.603 95.4855 141.639 103.42 140.898C115.415 139.769 124.962 132.606 127.613 123.685C141.907 121.834 152.418 111.376 151.269 99.8823C151.176 99.0124 151.028 98.1425 150.824 97.3096C158.87 92.8859 163.857 85.2973 163.059 77.1718C162.485 71.2674 158.944 66.2145 153.697 62.7903C158.165 58.4407 160.631 52.814 160.056 46.9096ZM64.0994 97.3651C62.023 92.4047 57.722 88.3697 52.1604 85.9266C54.348 82.4469 55.4232 78.4859 55.0154 74.377C54.589 69.9903 52.5126 66.0849 49.3425 62.9569C53.3469 59.2921 55.8681 54.6279 56.2389 49.649C61.4298 47.9831 65.842 45.1143 68.9565 41.542C73.5912 43.578 79.0602 44.522 84.8443 43.9667C88.2183 43.652 91.3885 42.8562 94.2805 41.6716C97.1355 45.1328 101.233 47.8166 106.071 49.3713C106.034 50.2412 106.053 51.1112 106.127 51.9811C106.701 57.8854 110.242 62.9384 115.489 66.3626C111.002 70.6937 108.518 76.3204 109.112 82.2248C109.204 83.0947 109.353 83.9646 109.556 84.7975C103.791 87.9626 99.6011 92.7564 97.9697 98.2165C93.335 98.8088 89.1082 100.308 85.5487 102.455C80.191 98.5867 72.7941 96.5507 64.8595 97.2911C64.5999 97.3096 64.3589 97.3466 64.0994 97.3651Z" fill="#FACD5B" stroke="#5B5B5B" stroke-width="2" stroke-miterlimit="10"/>
<g id="Group_4">
<path id="Vector_8" d="M108.74 153.54C108.74 160.888 121.087 166.829 136.363 166.829" stroke="#5B5B5B" stroke-width="2" stroke-miterlimit="10"/>
</g>
<path id="Vector_9" d="M143.464 168.217C140.312 169.272 136.363 166.163 136.363 166.163C136.363 166.163 137.531 161.351 140.683 160.296C143.834 159.241 147.005 160.166 147.783 162.35C148.543 164.553 146.615 167.162 143.464 168.217Z" fill="#FACD5B" stroke="#5B5B5B" stroke-width="2" stroke-miterlimit="10"/>
<path id="Vector_10" d="M120.699 114.116C128.912 105.75 133.917 94.7001 133.917 82.5767C133.917 73.822 131.303 65.6225 126.761 58.5891C129.449 55.7942 131.044 52.0924 130.932 48.0575C130.71 39.821 123.331 33.1392 114.322 33.0282C109.001 32.9542 104.255 35.1382 101.103 38.5809C95.2452 36.4709 88.8493 35.3233 82.1753 35.3233C75.5014 35.3233 69.1055 36.4894 63.2472 38.5809C60.0956 35.1382 55.3497 32.9542 50.0291 33.0282C41.0192 33.1578 33.6408 39.821 33.4183 48.0575C33.3071 52.0924 34.9014 55.7942 37.5896 58.5891C33.0476 65.6225 30.4336 73.822 30.4336 82.5767C30.4336 95.496 36.1065 107.194 45.2832 115.726C46.859 116.67 47.7117 117.707 47.4337 119.484C47.2483 120.65 47.1556 122.556 47.1556 123.778V145.84C47.1556 163.498 62.9692 174.067 82.3051 174.067H85.9943C105.33 174.067 121.885 163.517 121.885 145.84L121.144 123.778C120.866 121.446 120.384 119.576 119.642 117.281C119.383 116.393 120.013 114.745 120.699 114.116Z" fill="white" stroke="#5B5B5B" stroke-width="2" stroke-miterlimit="10"/>
<path id="Vector_11" d="M119.845 42.8563C116.767 39.8578 111.781 39.8578 108.703 42.8563L119.845 53.721C122.922 50.7226 122.922 45.8547 119.845 42.8563Z" fill="#FACD5B" stroke="#5B5B5B" stroke-width="2" stroke-miterlimit="10"/>
<path id="Vector_12" d="M44.5591 42.8563C41.4816 45.8547 41.4816 50.7226 44.5591 53.721L55.7009 42.8563C52.6234 39.8578 47.6365 39.8578 44.5591 42.8563Z" fill="#FACD5B" stroke="#5B5B5B" stroke-width="2" stroke-miterlimit="10"/>
<path id="Vector_13" d="M96.2001 79.1527C96.9458 79.4058 97.5173 79.7854 97.8497 80.1455C98.015 80.3246 98.0971 80.4725 98.1311 80.5706C98.1473 80.6174 98.1505 80.6468 98.151 80.6606C98.1512 80.6674 98.1507 80.6712 98.1505 80.6726L98.1501 80.6744L98.1493 80.6762C98.1486 80.6774 98.1467 80.6806 98.1423 80.6859C98.1336 80.6966 98.113 80.7179 98.0716 80.7451C97.9848 80.8022 97.8294 80.8695 97.589 80.9109C97.1057 80.9942 96.4209 80.9473 95.6752 80.6942C94.9295 80.441 94.3579 80.0615 94.0256 79.7014C93.8603 79.5223 93.7782 79.3743 93.7442 79.2762C93.728 79.2295 93.7248 79.2 93.7243 79.1863C93.7241 79.1794 93.7246 79.1757 93.7247 79.1743L93.7251 79.1724L93.726 79.1707C93.7266 79.1695 93.7286 79.1662 93.733 79.1609C93.7417 79.1503 93.7623 79.1289 93.8036 79.1017C93.8905 79.0446 94.0459 78.9773 94.2863 78.9359C94.7696 78.8527 95.4544 78.8996 96.2001 79.1527Z" fill="black" stroke="#5B5B5B" stroke-width="2"/>
<path id="Vector_14" d="M70.2357 78.9738C70.2359 78.9743 70.2362 78.975 70.2366 78.9766C70.237 78.9783 70.2379 78.9823 70.2384 78.9893C70.2393 79.0034 70.239 79.0332 70.2278 79.0812C70.2041 79.1818 70.1379 79.3363 69.9929 79.5297C69.7011 79.9187 69.1749 80.3504 68.4635 80.6737C67.7522 80.997 67.0805 81.1096 66.595 81.0738C66.3537 81.056 66.1935 81.0044 66.102 80.9561C66.0583 80.9331 66.0356 80.9138 66.0256 80.9037C66.0206 80.8988 66.0182 80.8955 66.0172 80.8941C66.0163 80.8927 66.0159 80.892 66.0157 80.8915C66.0155 80.891 66.0152 80.8903 66.0148 80.8887C66.0143 80.8871 66.0135 80.8831 66.013 80.876C66.012 80.8619 66.0123 80.8322 66.0236 80.7842C66.0473 80.6836 66.1135 80.529 66.2585 80.3357C66.5503 79.9467 67.0765 79.5149 67.7878 79.1916C68.4992 78.8683 69.1709 78.7557 69.6563 78.7915C69.8977 78.8093 70.0578 78.861 70.1494 78.9092C70.193 78.9323 70.2157 78.9516 70.2257 78.9616C70.2307 78.9666 70.2332 78.9699 70.2342 78.9713C70.2351 78.9726 70.2354 78.9733 70.2357 78.9738Z" fill="black" stroke="#5B5B5B" stroke-width="2"/>
<g id="Group_5">
<path id="Vector_15" d="M76.0006 91.4236C79.3794 91.4236 82.1184 89.2773 82.1184 86.6298C82.1184 83.9822 79.3794 81.8359 76.0006 81.8359C72.6218 81.8359 69.8828 83.9822 69.8828 86.6298C69.8828 89.2773 72.6218 91.4236 76.0006 91.4236Z" fill="white" stroke="#5B5B5B" stroke-width="2" stroke-miterlimit="10"/>
<path id="Vector_16" d="M88.1617 91.5164C91.5405 91.5164 94.2795 89.3701 94.2795 86.7225C94.2795 84.075 91.5405 81.9287 88.1617 81.9287C84.783 81.9287 82.0439 84.075 82.0439 86.7225C82.0439 89.3701 84.783 91.5164 88.1617 91.5164Z" fill="white" stroke="#5B5B5B" stroke-width="2" stroke-miterlimit="10"/>
</g>
<path id="Vector_17" d="M85.6409 83.1688C85.6409 84.7236 81.8405 85.9822 81.8405 85.9822C81.8405 85.9822 78.04 84.7236 78.04 83.1688C78.04 81.6141 79.7456 80.3555 81.8405 80.3555C83.9539 80.3555 85.6409 81.6141 85.6409 83.1688Z" fill="#FACD5B" stroke="#5B5B5B" stroke-width="2" stroke-miterlimit="10"/>
<g id="Group_6">
<g id="Group_7">
<path id="Vector_18" d="M64.415 128.479C69.4831 128.479 73.5917 125.769 73.5917 122.426C73.5917 119.084 69.4831 116.374 64.415 116.374C59.3468 116.374 55.2383 119.084 55.2383 122.426C55.2383 125.769 59.3468 128.479 64.415 128.479Z" fill="white" stroke="#5B5B5B" stroke-width="2" stroke-miterlimit="10"/>
<path id="Vector_19" d="M60.9854 124.869V127.812" stroke="#5B5B5B" stroke-width="2" stroke-miterlimit="10" stroke-linecap="round"/>
</g>
<path id="Vector_20" d="M66.918 124.869V128.127" stroke="#5B5B5B" stroke-width="2" stroke-miterlimit="10" stroke-linecap="round"/>
</g>
<g id="Group_8">
<g id="Group_9">
<path id="Vector_21" d="M103.179 128.478C108.247 128.478 112.355 125.768 112.355 122.425C112.355 119.083 108.247 116.373 103.179 116.373C98.1105 116.373 94.002 119.083 94.002 122.425C94.002 125.768 98.1105 128.478 103.179 128.478Z" fill="white" stroke="#5B5B5B" stroke-width="2" stroke-miterlimit="10"/>
<path id="Vector_22" d="M99.749 124.869V127.812" stroke="#5B5B5B" stroke-width="2" stroke-miterlimit="10" stroke-linecap="round"/>
</g>
<path id="Vector_23" d="M105.682 124.869V128.127" stroke="#5B5B5B" stroke-width="2" stroke-miterlimit="10" stroke-linecap="round"/>
</g>
</g>
</svg>
