<svg width="24" height="24" viewBox="0 0 24 24" fill="none" xmlns="http://www.w3.org/2000/svg">
<path id="Icon" d="M10.9395 4.06077H6.73945C5.0593 4.06077 4.21922 4.06077 3.57748 4.38776C3.013 4.67538 2.55405 5.13432 2.26643 5.6988C1.93945 6.34054 1.93945 7.18062 1.93945 8.86077V17.2608C1.93945 18.9409 1.93945 19.781 2.26643 20.4227C2.55405 20.9872 3.013 21.4462 3.57748 21.7338C4.21922 22.0608 5.0593 22.0608 6.73945 22.0608H15.1395C16.8196 22.0608 17.6597 22.0608 18.3014 21.7338C18.8659 21.4462 19.3249 20.9872 19.6125 20.4227C19.9395 19.781 19.9395 18.9409 19.9395 17.2608V13.0608M7.93943 16.0608H9.61397C10.1032 16.0608 10.3477 16.0608 10.5779 16.0055C10.782 15.9565 10.9771 15.8757 11.156 15.7661C11.3579 15.6424 11.5308 15.4694 11.8767 15.1235L21.4395 5.56078C22.2679 4.73235 22.2679 3.3892 21.4395 2.56077C20.611 1.73235 19.2679 1.73235 18.4395 2.56077L8.87669 12.1235C8.53078 12.4694 8.35783 12.6424 8.23415 12.8442C8.12449 13.0231 8.04368 13.2182 7.99469 13.4223C7.93943 13.6525 7.93943 13.8971 7.93943 14.3863V16.0608Z" stroke="black" stroke-width="2" stroke-linecap="round" stroke-linejoin="round"/>
</svg>
