<svg width="21" height="22" viewBox="0 0 21 22" fill="none" xmlns="http://www.w3.org/2000/svg">
<g id="Icon">
<path d="M10.9829 14C12.6398 14 13.9829 12.6569 13.9829 11C13.9829 9.34315 12.6398 8 10.9829 8C9.32606 8 7.98291 9.34315 7.98291 11C7.98291 12.6569 9.32606 14 10.9829 14Z" stroke="white" stroke-width="2" stroke-linecap="round" stroke-linejoin="round"/>
<path d="M8.272 18.3711L8.85644 19.6856C9.03018 20.0768 9.31372 20.4093 9.67267 20.6426C10.0316 20.8759 10.4505 21.0001 10.8787 21C11.3068 21.0001 11.7257 20.8759 12.0847 20.6426C12.4436 20.4093 12.7271 20.0768 12.9009 19.6856L13.4853 18.3711C13.6934 17.9047 14.0433 17.5159 14.4853 17.26C14.9301 17.0034 15.4447 16.8941 15.9553 16.9478L17.3853 17.1C17.811 17.145 18.2406 17.0656 18.622 16.8713C19.0034 16.6771 19.3203 16.3763 19.5342 16.0056C19.7484 15.635 19.8504 15.2103 19.8279 14.7829C19.8055 14.3555 19.6594 13.9438 19.4076 13.5978L18.5609 12.4344C18.2594 12.0171 18.0983 11.5148 18.1009 11C18.1008 10.4866 18.2634 9.98635 18.5653 9.57111L19.412 8.40778C19.6639 8.06175 19.8099 7.65007 19.8324 7.22267C19.8549 6.79528 19.7528 6.37054 19.5387 6C19.3248 5.62923 19.0079 5.32849 18.6265 5.13423C18.245 4.93997 17.8154 4.86053 17.3898 4.90556L15.9598 5.05778C15.4491 5.11141 14.9346 5.00212 14.4898 4.74556C14.0469 4.48825 13.6968 4.09736 13.4898 3.62889L12.9009 2.31444C12.7271 1.92317 12.4436 1.59072 12.0847 1.3574C11.7257 1.12408 11.3068 0.99993 10.8787 1C10.4505 0.99993 10.0316 1.12408 9.67267 1.3574C9.31372 1.59072 9.03018 1.92317 8.85644 2.31444L8.272 3.62889C8.06492 4.09736 7.71487 4.48825 7.272 4.74556C6.82721 5.00212 6.31266 5.11141 5.802 5.05778L4.36755 4.90556C3.94188 4.86053 3.51229 4.93997 3.13087 5.13423C2.74944 5.32849 2.43257 5.62923 2.21866 6C2.00448 6.37054 1.90244 6.79528 1.92493 7.22267C1.94741 7.65007 2.09345 8.06175 2.34533 8.40778L3.19199 9.57111C3.49394 9.98635 3.65653 10.4866 3.65644 11C3.65653 11.5134 3.49394 12.0137 3.19199 12.4289L2.34533 13.5922C2.09345 13.9382 1.94741 14.3499 1.92493 14.7773C1.90244 15.2047 2.00448 15.6295 2.21866 16C2.43278 16.3706 2.74969 16.6712 3.13106 16.8654C3.51243 17.0596 3.94191 17.1392 4.36755 17.0944L5.79755 16.9422C6.30822 16.8886 6.82277 16.9979 7.26755 17.2544C7.71208 17.511 8.06376 17.902 8.272 18.3711Z" stroke="white" stroke-width="2" stroke-linecap="round" stroke-linejoin="round"/>
</g>
</svg>
