<svg width="24" height="24" viewBox="0 0 24 24" fill="none" xmlns="http://www.w3.org/2000/svg">
<path d="M8.83268 18.5V11.35M5.5 12.65V17.2C5.5 17.918 6.09684 18.5 6.83307 18.5H15.7822C16.7691 18.5 17.6084 17.7978 17.7585 16.8465L18.4763 12.2965C18.6627 11.1153 17.7255 10.05 16.5 10.05H14.165C13.7969 10.05 13.4984 9.75898 13.4984 9.4V7.1028C13.4984 6.2176 12.7626 5.5 11.8549 5.5C11.6384 5.5 11.4422 5.62434 11.3542 5.81728L9.00861 10.964C8.90163 11.1987 8.66293 11.35 8.39952 11.35H6.83307C6.09684 11.35 5.5 11.932 5.5 12.65Z" stroke="#5B5B5B" stroke-linecap="round" stroke-linejoin="round"/>
</svg>
