<svg width="52" height="52" viewBox="0 0 52 52" fill="none" xmlns="http://www.w3.org/2000/svg">
<rect width="52" height="52" rx="26" fill="white"/>
<path fill-rule="evenodd" clip-rule="evenodd" d="M25.9932 19.1358C23.9938 16.7984 20.6597 16.1696 18.1547 18.31C15.6496 20.4504 15.297 24.029 17.2642 26.5604C18.8998 28.6651 23.8498 33.1041 25.4721 34.5408C25.6536 34.7016 25.7444 34.7819 25.8502 34.8135C25.9426 34.8411 26.0437 34.8411 26.1361 34.8135C26.2419 34.7819 26.3327 34.7016 26.5142 34.5408C28.1365 33.1041 33.0865 28.6651 34.7221 26.5604C36.6893 24.029 36.3797 20.4279 33.8316 18.31C31.2835 16.1922 27.9925 16.7984 25.9932 19.1358Z" stroke="#71A1FE" stroke-width="2" stroke-linecap="round" stroke-linejoin="round"/>
</svg>
