<svg width="53" height="18" viewBox="0 0 53 18" fill="none" xmlns="http://www.w3.org/2000/svg">
<path d="M5.91357 11.8045C5.91357 8.23617 8.14039 6.09519 10.3969 6.09519C11.5944 6.09519 12.307 6.53132 13.0097 7.22515L12.881 5.59959V1.96191C14.7615 1.96191 16.2955 3.48835 16.2955 5.38153V17.2263H13.5144L13.267 16.1756H13.1878C12.4258 16.9389 11.3767 17.4939 10.3474 17.4939C7.64554 17.4939 5.91357 15.3331 5.91357 11.8045ZM12.8711 13.7869V9.5049C12.3565 9.02913 11.7627 8.85071 11.1887 8.85071C10.2583 8.85071 9.39731 9.73287 9.39731 11.7351C9.39731 13.8166 10.0802 14.6988 11.248 14.6988C11.9012 14.7087 12.4159 14.4906 12.8711 13.7869Z" fill="#5B5B5B"/>
<path d="M17.1946 11.8222C17.1946 8.22558 19.7475 6.13086 22.5181 6.13086C25.259 6.13086 27.8217 8.22558 27.8217 11.8222C27.8217 15.399 25.2688 17.4937 22.5181 17.4937C19.7475 17.4937 17.1946 15.399 17.1946 11.8222ZM24.3486 11.8222C24.3486 10.014 23.7747 8.86783 22.5181 8.86783C21.2416 8.86783 20.6677 10.014 20.6677 11.8222C20.6677 13.6106 21.2416 14.7568 22.5181 14.7568C23.7747 14.7469 24.3486 13.6106 24.3486 11.8222Z" fill="#5B5B5B"/>
<path d="M31.5517 6.39792L31.7783 8.28713H31.8572C32.6553 6.84302 33.8475 6.13086 34.9313 6.13086C35.5816 6.13086 35.9363 6.22977 36.2417 6.35836L35.6703 9.27624C35.286 9.17733 34.9707 9.10809 34.4978 9.10809C33.6997 9.10809 32.7341 9.62243 32.1626 11.0566V13.8756C32.1626 15.7352 30.6551 17.2485 28.8027 17.2485V9.16744C28.8027 7.63431 30.0344 6.39792 31.5517 6.39792Z" fill="#5B5B5B"/>
<path d="M36.8958 6.39816H39.6522L39.8795 7.77425H39.9585C40.8576 6.87336 41.7863 6.13086 43.2485 6.13086C44.7503 6.13086 45.6691 6.76446 46.2224 7.92275C47.1511 6.97236 48.1687 6.13086 49.6112 6.13086C51.9725 6.13086 53 7.82375 53 10.5363V13.8528C53 15.7239 51.4785 17.2485 49.6112 17.2485V10.9521C49.6112 9.46714 49.2259 9.02164 48.3762 9.02164C47.8822 9.02164 47.2894 9.32854 46.6472 9.99184V17.2485H43.2386V10.9521C43.2386 9.46714 42.8533 9.02164 42.0037 9.02164C41.5097 9.02164 40.9169 9.32854 40.2747 9.99184V17.2485H36.9056V6.39816H36.8958Z" fill="#5B5B5B"/>
<path d="M4.04053 17.8959C2.26708 17.8959 0.832275 16.4543 0.832275 14.6725V6.88281H4.04053V17.8959Z" fill="#5B5B5B"/>
<ellipse cx="2.49491" cy="2.49709" rx="2.49491" ry="2.49709" fill="#5B5B5B"/>
</svg>
