<svg width="158" height="67" viewBox="0 0 158 67" fill="none" xmlns="http://www.w3.org/2000/svg">
<path fill-rule="evenodd" clip-rule="evenodd" d="M138.667 11L135 0L131.333 11H10C4.47715 11 0 15.4772 0 21V57C0 62.5229 4.47715 67 10 67H148C153.523 67 158 62.5229 158 57V21C158 15.4772 153.523 11 148 11H138.667Z" fill="black" fill-opacity="0.5"/>
<path d="M17.968 27.128V26.264H11.836V25.316H19.192V28.016H13.072V28.88H19.408V29.84H11.86V27.128H17.968ZM18.004 34.808V33.452H13.096V34.808H18.004ZM20.428 31.544H16.132V32.468H19.216V35.792H11.884V32.468H14.896V31.544H10.588V30.56H20.428V31.544ZM25.0351 32.12V27.26H23.1631V32.12H25.0351ZM27.5551 29.108V25.292H28.7071V35.408H27.5551V30.116H26.1871V33.104H22.0111V26.276H26.1871V29.108H27.5551ZM29.7271 25.088H30.9031V35.912H29.7271V25.088ZM40.3581 25.076H41.6061V35.948H40.3581V25.076ZM35.8341 25.88C37.4541 25.88 38.6301 27.368 38.6301 29.696C38.6301 32.048 37.4541 33.524 35.8341 33.524C34.2261 33.524 33.0501 32.048 33.0501 29.696C33.0501 27.368 34.2261 25.88 35.8341 25.88ZM35.8341 26.996C34.8981 26.996 34.2381 28.016 34.2381 29.696C34.2381 31.4 34.8981 32.42 35.8341 32.42C36.7821 32.42 37.4421 31.4 37.4421 29.696C37.4421 28.016 36.7821 26.996 35.8341 26.996ZM52.4532 30.812V31.808H44.9412V25.964H52.3692V26.96H46.2012V28.352H52.1292V29.324H46.2012V30.812H52.4532ZM43.7292 33.584H53.5572V34.592H43.7292V33.584ZM62.1243 26.936V26.204H55.9923V25.352H63.3483V27.74H57.2283V28.508H63.5403V29.372H56.0163V26.936H62.1243ZM57.1443 34.124V34.952H63.7083V35.804H55.9202V33.32H62.1603V32.552H55.8963V31.7H63.3843V34.124H57.1443ZM54.7563 30.056H64.5843V30.968H54.7563V30.056ZM69.4026 31.688L68.9346 30.692C71.2146 30.38 72.7026 29.144 72.7746 27.692H69.3786V26.684H72.7866V25.28H74.0226V26.684H77.4186V27.692H74.0346C74.1066 29.144 75.5946 30.38 77.8746 30.692L77.4066 31.688C75.5826 31.4 74.1186 30.56 73.4106 29.336C72.6906 30.56 71.2266 31.4 69.4026 31.688ZM74.0226 33.608H78.3186V34.616H68.5026V33.608H72.7866V31.304H74.0226V33.608ZM81.1137 27.38V32.324C82.3617 32.312 83.3457 32.252 84.4617 32.024L84.5697 33.044C83.2617 33.296 82.1457 33.344 80.6217 33.344H79.9017V26.372H83.9097V27.38H81.1137ZM87.6057 25.076H88.7817V35.912H87.6057V30.368H86.3217V35.384H85.1577V25.304H86.3217V29.36H87.6057V25.076ZM93.2208 32.468C93.9528 32.468 94.4688 31.88 94.4688 30.98C94.4688 30.08 93.9528 29.48 93.2208 29.48C92.4888 29.48 91.9728 30.08 91.9728 30.98C91.9728 31.88 92.4888 32.468 93.2208 32.468ZM93.2208 28.46C94.5888 28.46 95.5728 29.48 95.5728 30.98C95.5728 32.468 94.5888 33.5 93.2208 33.5C91.8528 33.5 90.8688 32.468 90.8688 30.98C90.8688 29.48 91.8528 28.46 93.2208 28.46ZM93.8328 25.4V26.852H95.8608V27.848H90.5568V26.852H92.6088V25.4H93.8328ZM98.6328 25.088H99.8088V35.924H98.6328V30.596H97.4808V35.42H96.3288V25.316H97.4808V29.576H98.6328V25.088ZM105.544 25.964V27.752C105.544 29.768 106.576 31.736 108.232 32.504L107.5 33.5C106.276 32.888 105.4 31.7 104.932 30.248C104.452 31.784 103.564 33.044 102.328 33.68L101.548 32.696C103.24 31.868 104.296 29.78 104.296 27.752V25.964H105.544ZM109.372 25.064H110.62V35.936H109.372V29.636H107.056V28.628H109.372V25.064ZM19.54 43.076V48.584H18.304V43.076H19.54ZM12.016 45.884C12.016 46.748 12.712 47.312 13.648 47.312C14.596 47.312 15.304 46.748 15.304 45.884C15.304 45.02 14.596 44.456 13.648 44.456C12.712 44.456 12.016 45.02 12.016 45.884ZM16.504 45.884C16.504 47.312 15.292 48.32 13.648 48.32C12.016 48.32 10.816 47.312 10.816 45.884C10.816 44.456 12.016 43.436 13.648 43.436C15.292 43.436 16.504 44.456 16.504 45.884ZM13.672 52.82H19.864V53.792H12.46V50.948H18.316V50.048H12.436V49.076H19.54V51.86H13.672V52.82ZM27.4711 45.812H29.3911V43.088H30.6271V49.544H29.3911V46.82H27.4711V45.812ZM28.0951 48.224L27.4831 49.196C26.2831 48.776 25.4191 47.924 24.9631 46.88C24.4831 48.068 23.5711 49.028 22.2871 49.484L21.6511 48.5C23.3311 47.9 24.3031 46.46 24.3031 44.972V44.816H22.0111V43.82H27.8071V44.816H25.5511V44.96C25.5511 46.316 26.4751 47.66 28.0951 48.224ZM27.0271 52.976C28.5511 52.976 29.4391 52.592 29.4391 51.884C29.4391 51.176 28.5511 50.792 27.0271 50.792C25.4791 50.792 24.6031 51.176 24.6031 51.884C24.6031 52.592 25.4791 52.976 27.0271 52.976ZM27.0271 49.832C29.2831 49.832 30.6751 50.6 30.6751 51.884C30.6751 53.18 29.2831 53.936 27.0271 53.936C24.7591 53.936 23.3671 53.18 23.3671 51.884C23.3671 50.6 24.7591 49.832 27.0271 49.832ZM37.5861 44.18C35.9061 44.18 35.0061 44.504 35.0061 45.128C35.0061 45.74 35.9061 46.064 37.5861 46.064C39.2661 46.064 40.1661 45.74 40.1661 45.128C40.1661 44.504 39.2661 44.18 37.5861 44.18ZM37.5861 46.988C35.1501 46.988 33.7221 46.328 33.7221 45.128C33.7221 43.916 35.1501 43.256 37.5861 43.256C40.0101 43.256 41.4501 43.916 41.4501 45.128C41.4501 46.328 40.0101 46.988 37.5861 46.988ZM35.0901 51.98V52.88H41.5701V53.828H33.8661V51.104H40.0461V50.324H33.8421V49.388H41.2581V51.98H35.0901ZM32.6781 47.624H42.4941V48.608H32.6781V47.624ZM54.7045 47.396L53.4925 47.264C53.7685 46.196 53.7805 45.416 53.7805 44.6H47.5645V43.604H55.0045V44.516C55.0045 45.38 55.0045 46.28 54.7045 47.396ZM51.2845 52.976C52.8805 52.976 53.8405 52.58 53.8405 51.896C53.8405 51.224 52.8805 50.828 51.2845 50.828C49.6765 50.828 48.6925 51.224 48.6925 51.896C48.6925 52.58 49.6765 52.976 51.2845 52.976ZM51.2845 49.88C53.5885 49.88 55.0765 50.648 55.0765 51.896C55.0765 53.156 53.5885 53.924 51.2845 53.924C48.9445 53.924 47.4685 53.156 47.4685 51.896C47.4685 50.648 48.9445 49.88 51.2845 49.88ZM51.5245 48.044H56.2045V49.04H46.4365V48.044H50.2765V46.052H51.5245V48.044ZM62.3476 44.48C60.7876 44.48 59.7676 45.008 59.7676 45.872C59.7676 46.748 60.7876 47.276 62.3476 47.276C63.8956 47.276 64.9156 46.748 64.9156 45.872C64.9156 45.008 63.8956 44.48 62.3476 44.48ZM62.3476 48.272C60.0556 48.272 58.4956 47.336 58.4956 45.872C58.4956 44.42 60.0556 43.484 62.3476 43.484C64.6276 43.484 66.1876 44.42 66.1876 45.872C66.1876 47.336 64.6276 48.272 62.3476 48.272ZM67.2796 49.196L67.2916 50.216H64.8436V53.924H63.5836V50.216H61.1116V53.924H59.8516V50.216H57.4516V49.196H67.2796ZM71.1426 50.468C71.8746 50.468 72.3906 49.88 72.3906 48.98C72.3906 48.08 71.8746 47.48 71.1426 47.48C70.4106 47.48 69.8946 48.08 69.8946 48.98C69.8946 49.88 70.4106 50.468 71.1426 50.468ZM71.1426 46.46C72.5106 46.46 73.4946 47.48 73.4946 48.98C73.4946 50.468 72.5106 51.5 71.1426 51.5C69.7746 51.5 68.7906 50.468 68.7906 48.98C68.7906 47.48 69.7746 46.46 71.1426 46.46ZM71.7546 43.4V44.852H73.7826V45.848H68.4786V44.852H70.5306V43.4H71.7546ZM76.5546 43.088H77.7306V53.924H76.5546V48.596H75.4026V53.42H74.2506V43.316H75.4026V47.576H76.5546V43.088ZM81.8697 46.628V48.404H87.0057V46.628H81.8697ZM85.0497 51.584H89.3577V52.604H79.5417V51.584H83.8137V49.4H80.6457V43.808H81.8697V45.632H87.0057V43.808H88.2297V49.4H85.0497V51.584ZM93.9048 44.084V45.98C93.9048 47.732 94.5648 49.568 96.0168 50.48L95.3208 51.44C94.3368 50.84 93.6888 49.784 93.3168 48.572C92.9328 49.904 92.2248 51.044 91.1808 51.68L90.4248 50.744C91.9608 49.832 92.7048 47.888 92.7048 46.04V44.084H93.9048ZM96.4488 46.88V43.292H97.6128V53.42H96.4488V47.888H94.8528V46.88H96.4488ZM98.6568 43.088H99.8328V53.924H98.6568V43.088ZM105.148 49.232V51.584H107.884V49.22C107.464 49.328 106.996 49.376 106.516 49.376C106.036 49.376 105.568 49.328 105.148 49.232ZM106.516 44.684C104.872 44.684 103.732 45.404 103.732 46.544C103.732 47.696 104.872 48.416 106.516 48.416C108.148 48.416 109.288 47.696 109.288 46.544C109.288 45.404 108.148 44.684 106.516 44.684ZM109.12 51.584H111.436V52.592H101.62V51.584H103.912V48.764C103.048 48.284 102.532 47.504 102.532 46.544C102.532 44.816 104.2 43.712 106.516 43.712C108.82 43.712 110.5 44.816 110.5 46.544C110.5 47.504 109.984 48.272 109.12 48.764V51.584ZM113.835 53.156C113.319 53.156 112.911 52.76 112.911 52.196C112.911 51.632 113.319 51.212 113.835 51.212C114.351 51.212 114.759 51.632 114.759 52.196C114.759 52.76 114.351 53.156 113.835 53.156Z" fill="white"/>
<path d="M141 34L131 44M131 34L141 44" stroke="white" stroke-linecap="round" stroke-linejoin="round"/>
</svg>
