<svg width="14" height="14" viewBox="0 0 14 14" fill="none" xmlns="http://www.w3.org/2000/svg">
<path id="Icon" d="M5.7 8.95L3.70108 10.9739C3.42226 11.2562 3.28285 11.3974 3.16302 11.4073C3.05906 11.416 2.95727 11.3742 2.88937 11.295C2.81111 11.2037 2.81111 11.0053 2.81111 10.6085V9.59455C2.81111 9.23857 2.5196 8.981 2.16738 8.92941V8.92941C1.31493 8.80455 0.645455 8.13507 0.520589 7.28262C0.5 7.14206 0.5 6.97434 0.5 6.63889V3.62C0.5 2.5279 0.5 1.98185 0.712537 1.56472C0.89949 1.1978 1.1978 0.89949 1.56472 0.712537C1.98185 0.5 2.5279 0.5 3.62 0.5H8.43C9.5221 0.5 10.0682 0.5 10.4853 0.712537C10.8522 0.89949 11.1505 1.1978 11.3375 1.56472C11.55 1.98185 11.55 2.5279 11.55 3.62V6.35M11.55 13.5L10.1353 12.5165C9.93648 12.3782 9.83705 12.3091 9.72883 12.2601C9.63279 12.2166 9.53181 12.1849 9.42812 12.1658C9.31129 12.1443 9.1902 12.1443 8.948 12.1443H7.78C7.05193 12.1443 6.6879 12.1443 6.40981 12.0026C6.1652 11.878 5.96633 11.6791 5.84169 11.4345C5.7 11.1564 5.7 10.7924 5.7 10.0643V8.43C5.7 7.70193 5.7 7.3379 5.84169 7.05981C5.96633 6.8152 6.1652 6.61633 6.40981 6.49169C6.6879 6.35 7.05193 6.35 7.78 6.35H11.42C12.1481 6.35 12.5121 6.35 12.7902 6.49169C13.0348 6.61633 13.2337 6.8152 13.3583 7.05981C13.5 7.3379 13.5 7.70193 13.5 8.43V10.1943C13.5 10.8 13.5 11.1029 13.401 11.3418C13.2691 11.6603 13.016 11.9134 12.6975 12.0453C12.4586 12.1443 12.1557 12.1443 11.55 12.1443V13.5Z" stroke="#5B5B5B" stroke-linecap="round" stroke-linejoin="round"/>
</svg>
