<svg width="24" height="24" viewBox="0 0 24 24" fill="none" xmlns="http://www.w3.org/2000/svg">
<path d="M10.7 13.95L8.70108 15.9739C8.42226 16.2562 8.28285 16.3974 8.16302 16.4073C8.05906 16.416 7.95727 16.3742 7.88937 16.295C7.81111 16.2037 7.81111 16.0053 7.81111 15.6085V14.5945C7.81111 14.2386 7.5196 13.981 7.16738 13.9294V13.9294C6.31493 13.8045 5.64545 13.1351 5.52059 12.2826C5.5 12.1421 5.5 11.9743 5.5 11.6389V8.62C5.5 7.5279 5.5 6.98185 5.71254 6.56472C5.89949 6.1978 6.1978 5.89949 6.56472 5.71254C6.98185 5.5 7.5279 5.5 8.62 5.5H13.43C14.5221 5.5 15.0682 5.5 15.4853 5.71254C15.8522 5.89949 16.1505 6.1978 16.3375 6.56472C16.55 6.98185 16.55 7.5279 16.55 8.62V11.35M16.55 18.5L15.1353 17.5165C14.9365 17.3782 14.837 17.3091 14.7288 17.2601C14.6328 17.2166 14.5318 17.1849 14.4281 17.1658C14.3113 17.1443 14.1902 17.1443 13.948 17.1443H12.78C12.0519 17.1443 11.6879 17.1443 11.4098 17.0026C11.1652 16.878 10.9663 16.6791 10.8417 16.4345C10.7 16.1564 10.7 15.7924 10.7 15.0643V13.43C10.7 12.7019 10.7 12.3379 10.8417 12.0598C10.9663 11.8152 11.1652 11.6163 11.4098 11.4917C11.6879 11.35 12.0519 11.35 12.78 11.35H16.42C17.1481 11.35 17.5121 11.35 17.7902 11.4917C18.0348 11.6163 18.2337 11.8152 18.3583 12.0598C18.5 12.3379 18.5 12.7019 18.5 13.43V15.1943C18.5 15.8 18.5 16.1029 18.401 16.3418C18.2691 16.6603 18.016 16.9134 17.6975 17.0453C17.4586 17.1443 17.1557 17.1443 16.55 17.1443V18.5Z" stroke="#5B5B5B" stroke-linecap="round" stroke-linejoin="round"/>
</svg>
