<svg width="68" height="68" viewBox="0 0 68 68" fill="none" xmlns="http://www.w3.org/2000/svg">
<path d="M12 1H56C62.0751 1 67 5.92487 67 12V56C67 62.0751 62.0751 67 56 67H12C5.92487 67 1 62.0751 1 56V12C1 5.92487 5.92487 1 12 1Z" fill="#F2F5FA" stroke="white" stroke-width="2"/>
<path fill-rule="evenodd" clip-rule="evenodd" d="M34.0012 41.3955C24.2917 41.3955 16 42.7672 16 48.2609C16 53.7545 24.2391 55.1754 34.0012 55.1754C43.7107 55.1754 52 53.8014 52 48.31C52 42.8186 43.7633 41.3955 34.0012 41.3955Z" stroke="#E3E1EC" stroke-width="4" stroke-linecap="round" stroke-linejoin="round"/>
<path fill-rule="evenodd" clip-rule="evenodd" d="M34.0015 33.5612C40.3733 33.5612 45.5377 28.7333 45.5377 22.7795C45.5377 16.8256 40.3733 12 34.0015 12C27.6297 12 22.463 16.8256 22.463 22.7795C22.4414 28.7132 27.5723 33.5411 33.9202 33.5612H34.0015Z" stroke="#E3E1EC" stroke-width="4" stroke-linecap="round" stroke-linejoin="round"/>
</svg>
