<svg width="52" height="52" viewBox="0 0 52 52" fill="none" xmlns="http://www.w3.org/2000/svg">
<rect width="52" height="52" rx="26" fill="white"/>
<path d="M30.2 35H20.9314C20.3256 35 20.0226 35 19.8824 34.8802C19.7607 34.7763 19.6961 34.6203 19.7086 34.4608C19.7231 34.2769 19.9373 34.0627 20.3657 33.6343L28.8686 25.1314C29.2646 24.7354 29.4627 24.5373 29.691 24.4632C29.8918 24.3979 30.1082 24.3979 30.309 24.4632C30.5373 24.5373 30.7354 24.7354 31.1314 25.1314L35 29V30.2M30.2 35C31.8802 35 32.7202 35 33.362 34.673C33.9265 34.3854 34.3854 33.9265 34.673 33.362C35 32.7202 35 31.8802 35 30.2M30.2 35H21.8C20.1198 35 19.2798 35 18.638 34.673C18.0735 34.3854 17.6146 33.9265 17.327 33.362C17 32.7202 17 31.8802 17 30.2V21.8C17 20.1198 17 19.2798 17.327 18.638C17.6146 18.0735 18.0735 17.6146 18.638 17.327C19.2798 17 20.1198 17 21.8 17H30.2C31.8802 17 32.7202 17 33.362 17.327C33.9265 17.6146 34.3854 18.0735 34.673 18.638C35 19.2798 35 20.1198 35 21.8V30.2M24.5 22.5C24.5 23.6046 23.6046 24.5 22.5 24.5C21.3954 24.5 20.5 23.6046 20.5 22.5C20.5 21.3954 21.3954 20.5 22.5 20.5C23.6046 20.5 24.5 21.3954 24.5 22.5Z" stroke="#71A1FE" stroke-width="2" stroke-linecap="round" stroke-linejoin="round"/>
</svg>
